<?xml version="1.0" standalone="no"?>
<!DOCTYPE svg PUBLIC "-//W3C//DTD SVG 1.1//EN" "http://www.w3.org/Graphics/SVG/1.1/DTD/svg11.dtd" >
<svg xmlns="http://www.w3.org/2000/svg" xmlns:xlink="http://www.w3.org/1999/xlink" version="1.1">
<metadata>
Created by FontForge 20190801 at Thu Feb 20 19:12:18 2020
 By stasi
Ruben Tarumian. 1994. All Rights Reserved.
</metadata>
<defs>
<font id="BernhardFashionBT-Regular" horiz-adv-x="516" >
  <font-face 
    font-family="ArTarumianBarak"
    font-weight="400"
    font-stretch="normal"
    units-per-em="2048"
    panose-1="2 3 2 3 2 4 2 2 5 2"
    ascent="1638"
    descent="-410"
    x-height="573"
    cap-height="1616"
    bbox="-135 -483 2620 1882"
    underline-thickness="33"
    underline-position="-211"
    unicode-range="U+0020-017B"
  />
<missing-glyph horiz-adv-x="748" 
d="M68 0v1365h544v-1365h-544zM136 68h408v1229h-408v-1229z" />
    <glyph glyph-name=".notdef" horiz-adv-x="748" 
d="M68 0v1365h544v-1365h-544zM136 68h408v1229h-408v-1229z" />
    <glyph glyph-name=".null" horiz-adv-x="0" 
 />
    <glyph glyph-name="nonmarkingreturn" horiz-adv-x="682" 
 />
    <glyph glyph-name="space" unicode=" " 
 />
    <glyph glyph-name="exclam" unicode="!" horiz-adv-x="739" 
d="M383 291q0 -7 -3 -11.5t-9 -5.5q-6 0 -11 5l-4 12l-8 1114v10q0 5 5 9t16 6q12 0 16.5 -4t5.5 -21zM371 86q19 0 34 -14.5t15 -34.5q0 -19 -15 -35t-34 -16t-35.5 16t-16.5 35q0 18 17 33.5t35 15.5z" />
    <glyph glyph-name="quotedbl" unicode="&#x22;" horiz-adv-x="530" 
d="M358 1434h70v-553h-70v553zM102 1434h70v-553h-70v553z" />
    <glyph glyph-name="numbersign" unicode="#" horiz-adv-x="2624" 
d="M1801 -260q-2 -6 -10.5 -10t-16.5 -1l-1584 476q-8 2 -13 7q-9 8 -12 20q-2 8 0.5 19t11.5 19l1299 1056l-228 288q-4 5 -4 12q0 14 7 18t11 4q9 0 18 -11l228 -288q4 -5 5 -8q6 -11 5 -20q-2 -14 -16 -25l-1297 -1054l1581 -475q17 -4 17 -17q0 -6 -2 -10zM2099 1184
l-318 -1q-103 0 -145 65q-36 55 -36 170q3 8 5 13t11 5q14 0 18 -6.5t8 -11.5q0 -97 28 -142q33 -52 112 -52h317v369q0 6 2 8t4.5 2.5t5.5 1.5h174q3 0 9 -8.5t6 -12.5q0 -6 -5.5 -13.5t-9.5 -7.5h-144v-339h296q96 0 142 -57q41 -50 41 -144q0 -13 -6 -20t-14 -7
q-22 0 -22 27q0 69 -25 107q-34 53 -117 53l-295 1v-444q-47 -40 -75 -59q-86 -59 -143 -59q-55 0 -82 38t-27 109v206q0 6 3.5 9.5t12.5 3.5q3 -2 7.5 -3.5t11.5 -4t8 -5.5v-212q0 -53 18 -76t53 -23q69 0 171 95v425z" />
    <glyph glyph-name="dollar" unicode="$" horiz-adv-x="1792" 
d="M1296 227q0 -76 56 -132t133 -56q76 0 132 55.5t56 132.5q0 79 -55 135t-133 56q-77 0 -133 -57t-56 -134zM1257 225q0 93 67 160.5t161 67.5t159.5 -66.5t65.5 -161.5q0 -92 -66.5 -158.5t-158.5 -66.5q-93 0 -161 67q-33 33 -50 72t-17 86zM731 227q0 -76 56 -132
t133 -56q76 0 132 55.5t56 132.5q0 79 -55 135t-133 56q-77 0 -133 -57t-56 -134zM692 225q0 92 66.5 160t161.5 68q93 0 159 -66t66 -162q0 -92 -66.5 -158.5t-158.5 -66.5q-93 0 -161 67q-33 33 -50 72t-17 86zM344 -39l-8 -7q-3 -3 -8 -3q-7 0 -13 5t-6 11l3 8l3 5
l555 896q2 5 9 8l10 3q6 0 10 -4t6 -13l-2 -6l-4 -8zM121 633q0 -79 54.5 -135t131.5 -56q76 0 132.5 56.5t56.5 134.5t-55 134t-134 56q-77 0 -131.5 -56t-54.5 -134zM80 631q0 92 66.5 159.5t160.5 67.5t159.5 -66.5t65.5 -160.5q0 -92 -66.5 -158.5t-158.5 -66.5
q-91 0 -159 66.5t-68 158.5z" />
    <glyph glyph-name="percent" unicode="%" horiz-adv-x="1227" 
d="M731 227q0 -76 56 -132t133 -56q76 0 132 55.5t56 132.5q0 79 -55 135t-133 56q-77 0 -133 -57t-56 -134zM692 225q0 92 66.5 160t161.5 68q93 0 159 -66t66 -162q0 -92 -66.5 -158.5t-158.5 -66.5q-93 0 -161 67q-33 33 -50 72t-17 86zM344 -39l-8 -7q-3 -3 -8 -3
q-7 0 -13 5t-6 11l3 8l3 5l555 896q2 5 9 8l10 3q6 0 10 -4t6 -13l-2 -6l-4 -8zM121 633q0 -79 54.5 -135t131.5 -56q76 0 132.5 56.5t56.5 134.5t-55 134t-134 56q-77 0 -131.5 -56t-54.5 -134zM80 631q0 92 66.5 159.5t160.5 67.5t159.5 -66.5t65.5 -160.5
q0 -92 -66.5 -158.5t-158.5 -66.5q-91 0 -159 66.5t-68 158.5z" />
    <glyph glyph-name="ampersand" unicode="&#x26;" horiz-adv-x="938" 
d="M620 130q-82 -75 -153.5 -109.5t-139.5 -34.5q-90 0 -136 56.5t-46 171.5v1378q0 9 5 14t15 6q9 0 14 -4q5 -8 5 -16v-1387q0 -94 36 -138t115 -44q62 0 132 39t153 119v392q0 16 16 16q20 0 20 -15v-537h269q11 0 15 -5q4 -2 5 -14q0 -9 -3.5 -12.5t-16.5 -5.5h-296
q-10 0 -16.5 4.5t-6.5 11.5l4 15q1 4 5.5 10t4.5 10v79z" />
    <glyph glyph-name="quotesingle" unicode="'" horiz-adv-x="274" 
d="M102 1434h70v-553h-70v553z" />
    <glyph glyph-name="parenleft" unicode="(" horiz-adv-x="680" 
d="M602 -381l8 -8l9 -13l2 -10q0 -8 -5 -12l-10 -4q-7 1 -9 2l-7 4l-6 6q-44 44 -105 132t-110 186q-76 151 -119 330q-39 174 -39 366q0 173 33 333.5t100 307.5q55 126 131 236.5t109 136.5l6 4l7 4l9 2q7 0 11 -4l4 -10l-2 -10l-9 -13l-8 -10q-165 -185 -258.5 -442
t-93.5 -535q0 -284 92 -538q47 -129 111 -238t149 -203z" />
    <glyph glyph-name="parenright" unicode=")" horiz-adv-x="680" 
d="M78 1575l-9 11l-3 4q-9 11 -9 18q0 6 4 10l13 4q7 -1 9 -2l7 -4l6 -4q40 -40 103 -131.5t112 -188.5q77 -155 117.5 -332t40.5 -362q0 -176 -33.5 -337.5t-99.5 -305.5q-55 -123 -130 -233t-110 -138l-6 -6l-7 -4l-9 -2q-8 0 -13 5l-4 11q0 7 9 18l3 4l9 9
q166 186 259 443t93 536t-92 533.5t-260 443.5z" />
    <glyph glyph-name="asterisk" unicode="*" horiz-adv-x="1024" 
d="M496 1591q0 10 3.5 15.5t12.5 5.5t12 -6l4 -19v-233l206 119l4 1l7 1q7 0 11 -3.5t6 -11.5l-3 -9l-9 -7l-207 -117l207 -115q4 -1 8 -8l4 -10q0 -6 -4.5 -10t-12.5 -4q-7 0 -11 2l-3 2l-203 114v-233q0 -10 -4.5 -16t-11.5 -7q-7 0 -12 6l-4 17v233l-206 -117l-5 -2
l-9 -1q-6 0 -10 4l-4 10l3 10l9 8l207 117l-207 119l-10 7l-2 9q2 7 5.5 10.5t11.5 4.5l7 -1l4 -1l206 -119v235z" />
    <glyph glyph-name="plus" unicode="+" horiz-adv-x="1706" 
d="M823 1221h62v-580h567v-61h-567v-580h-62v580h-569v61h569v580z" />
    <glyph glyph-name="comma" unicode="," 
d="M264 82l8 7l11 3q6 0 10.5 -4t5.5 -12l-1 -4l-5 -11l-141 -224q-2 -5 -9 -8q-3 -3 -8 -3q-6 0 -10 4t-6 12l1 7l3 6z" />
    <glyph glyph-name="hyphen" unicode="-" horiz-adv-x="393" 
d="M301 317q9 0 15 -5.5t6 -12.5q0 -8 -4.5 -12t-18.5 -4h-207q-8 0 -14 5.5t-6 12.5q0 9 4 12l16 4h209z" />
    <glyph glyph-name="period" unicode="." 
d="M258 86q19 0 34 -14.5t15 -34.5q0 -19 -14.5 -35t-34.5 -16q-18 0 -33.5 15.5t-15.5 35.5q0 18 15.5 33.5t33.5 15.5z" />
    <glyph glyph-name="slash" unicode="/" horiz-adv-x="696" 
d="M698 1597q3 6 8 10l13 5l8 -4l4 -9l-2 -9l-2 -5l-737 -1826l-7 -9l-10 -4l-12 3l-4 9l1 5l3 8z" />
    <glyph glyph-name="zero" unicode="0" horiz-adv-x="1034" 
d="M119 422q0 -161 117.5 -280t279.5 -119q166 0 282.5 116.5t116.5 282.5q0 168 -116 284.5t-283 116.5q-165 0 -281 -118t-116 -283zM80 422q0 179 127.5 307.5t308.5 128.5q182 0 309 -126t127 -310q0 -182 -128.5 -309t-307.5 -127q-176 0 -306 129t-130 307z" />
    <glyph glyph-name="one" unicode="1" horiz-adv-x="498" 
d="M268 16q0 -9 -4.5 -14t-15.5 -6q-9 0 -14 4l-5 16v811q0 9 6.5 15t16.5 6q7 0 11 -5t5 -18v-809z" />
    <glyph glyph-name="two" unicode="2" horiz-adv-x="805" 
d="M270 37h308q11 0 14.5 -3t5.5 -14q0 -10 -4 -14t-16 -6h-342q-12 0 -18 4.5t-7 13.5l3 9l9 12l269 317q67 80 100 144t33 118q0 86 -72.5 145.5t-183.5 59.5q-116 0 -192 -54t-101 -155v-5q-1 -5 -7 -11l-12 -4q-6 0 -11 3t-7 11l2 13q15 100 107 169.5t221 69.5t211 -67
t82 -170q0 -34 -7 -63t-24 -64q-31 -63 -109 -156z" />
    <glyph glyph-name="three" unicode="3" horiz-adv-x="813" 
d="M547 807h-414q-10 0 -15 4q-3 4 -5 14q0 11 4 15l16 4h442q14 0 19.5 -3.5t5.5 -13.5q0 -7 -4.5 -16t-13.5 -18l-235 -260l47 7l40 3q129 0 209 -69.5t80 -182.5q0 -128 -101.5 -216.5t-256.5 -88.5q-91 0 -171.5 34t-127.5 93l-5 4q-4 6 -6 14q0 8 5.5 13.5t13.5 5.5
q7 0 12 -4l10 -9l4 -6q36 -48 108.5 -78t156.5 -30q139 0 229 76t90 192q0 96 -71.5 155.5t-190.5 59.5q-34 0 -88 -12l-24 -4l-15 -1q-12 0 -14 2l-2 7q0 10 2 15l10 13z" />
    <glyph glyph-name="four" unicode="4" horiz-adv-x="940" 
d="M127 186h518v498q0 10 5 15t16 8q6 0 12 -6.5t6 -18.5v-496h207q11 0 15 -4q4 -2 5 -14q0 -9 -3 -12.5t-17 -5.5h-207v-277q0 -6 -6 -13t-16 -7q-9 0 -12 3.5t-5 16.5v277h-539q-11 0 -16.5 2.5t-7.5 13.5l3 15l7 18l348 639l8 8l9 4q6 0 12 -5.5t6 -10.5l-2 -7l-4 -8z
" />
    <glyph glyph-name="five" unicode="5" horiz-adv-x="842" 
d="M164 844h504q12 0 15.5 -4t4.5 -15q0 -9 -5 -14l-15 -4h-486l-4 -301q57 39 116.5 58.5t129.5 19.5q139 0 226 -80t87 -203q0 -132 -97 -222.5t-243 -90.5q-77 0 -159 30t-111 62l-4 4l-3 2q-7 4 -7 12q0 6 5 14q6 6 11 7q6 0 15 -6l3 -2l4 -4l20 -13q106 -71 222 -71
q132 0 218.5 79.5t86.5 194.5q0 108 -78.5 180t-199.5 72q-70 0 -128 -23q-29 -10 -59.5 -28t-60.5 -43l-5 -5l-6 -2l-5 -2q-9 0 -12 3t-5 16l6 356v6q0 7 5 12q5 3 14 5z" />
    <glyph glyph-name="six" unicode="6" horiz-adv-x="1034" 
d="M119 422q0 -161 117.5 -280t279.5 -119q166 0 282.5 116.5t116.5 282.5q0 168 -116 284.5t-283 116.5q-165 0 -281 -118t-116 -283zM313 807q48 24 101.5 37.5t101.5 13.5q183 0 309.5 -127t126.5 -309t-128.5 -309t-307.5 -127q-176 0 -306 129t-130 307q0 81 30.5 157
t100.5 158l428 516l8 6l8 3q7 0 13 -7q6 -5 6 -10q-1 -7 -2 -9l-4 -7z" />
    <glyph glyph-name="seven" unicode="7" horiz-adv-x="729" 
d="M193 -150l-10 -9q-3 -3 -9 -3q-8 0 -12 3t-6 14v6l2 4l422 942h-467q-11 0 -16 4l-5 14q0 12 4 15t17 4h485q13 0 19.5 -3.5t7.5 -13.5l-7 -20l-6 -15z" />
    <glyph glyph-name="eight" unicode="8" horiz-adv-x="1034" 
d="M776 889q0 90 -69.5 144t-188.5 54q-118 0 -189 -53.5t-71 -144.5q0 -88 71.5 -145.5t186.5 -57.5q114 0 187 57t73 146zM127 340q0 -138 108.5 -227.5t280.5 -89.5q174 0 282.5 89t108.5 228q0 137 -108 224t-283 87q-170 0 -279.5 -87t-109.5 -224zM393 670
q-87 32 -131.5 87t-44.5 130q0 105 83 170t218 65q134 0 214.5 -63.5t80.5 -171.5q0 -74 -44 -129t-130 -88q141 -25 223 -114t82 -216q0 -154 -118.5 -253t-309.5 -99q-189 0 -307.5 99t-118.5 253q0 125 80.5 214t222.5 116z" />
    <glyph glyph-name="nine" unicode="9" horiz-adv-x="1034" 
d="M915 422q0 162 -118 280.5t-281 118.5q-162 0 -279.5 -116.5t-117.5 -282.5q0 -169 114.5 -285.5t282.5 -116.5q165 0 282 118.5t117 283.5zM463 -330l-7 -4l-7 -2q-8 0 -12.5 4t-6.5 13l1 9l3 5l287 342q-47 -24 -101.5 -37.5t-103.5 -13.5q-182 0 -309 126t-127 310
q0 182 128.5 309t307.5 127q176 0 306 -129t130 -307q0 -80 -27 -153.5t-85 -141.5z" />
    <glyph glyph-name="colon" unicode=":" 
d="M258 487q19 0 34 -14.5t15 -34.5q0 -18 -14.5 -33.5t-34.5 -15.5q-17 0 -33 15t-16 34q0 17 15 33t34 16zM258 86q19 0 34 -14.5t15 -34.5q0 -19 -14.5 -35t-34.5 -16q-18 0 -33.5 15.5t-15.5 35.5q0 18 15.5 33.5t33.5 15.5z" />
    <glyph glyph-name="semicolon" unicode=";" 
d="M258 487q19 0 34 -14.5t15 -34.5q0 -18 -14.5 -33.5t-34.5 -15.5q-17 0 -33 15t-16 34q0 17 15 33t34 16zM157 -147h-4q-7 2 -10.5 6t-3.5 6l3 11q2 4 8 5h10l7 -1l11 -1q30 0 46 23.5t16 68.5v95q0 9 5.5 14.5t12.5 5.5q9 0 14 -5q2 -2 4 -15v-80q0 -70 -22 -103
t-68 -33l-16 1z" />
    <glyph glyph-name="less" unicode="&#x3c;" horiz-adv-x="1706" 
d="M1442 1112v-70l-1069 -432l1069 -432v-69l-1178 481v41z" />
    <glyph glyph-name="equal" unicode="=" horiz-adv-x="1706" 
d="M254 465h1198v-64h-1198v64zM254 819h1198v-63h-1198v63z" />
    <glyph glyph-name="greater" unicode="&#x3e;" horiz-adv-x="1706" 
d="M264 1112l1178 -481v-41l-1178 -481v69l1067 432l-1067 432v70z" />
    <glyph glyph-name="question" unicode="?" horiz-adv-x="1143" 
d="M471 86q19 0 34 -14.5t15 -34.5q0 -19 -14.5 -35t-34.5 -16q-18 0 -33.5 15.5t-15.5 35.5q0 18 15.5 33.5t33.5 15.5zM489 295q0 -10 -4.5 -14.5t-15.5 -6.5q-9 0 -12.5 5t-3.5 16v190q0 73 14.5 113t54.5 78q19 18 75 61q210 159 210 342q0 139 -88 226.5t-234 87.5
q-89 0 -155.5 -44t-120.5 -143l-4 -6l-8 -11q-3 -3 -9 -3q-8 3 -10 5l-4 11l1 12l3 9l4 8q48 97 128 147q41 26 86 39t98 13q152 0 252 -98.5t100 -250.5q0 -194 -247 -389l-24 -18q-52 -42 -71 -81q-15 -36 -15 -110v-188z" />
    <glyph glyph-name="A" unicode="A" horiz-adv-x="1976" 
d="M381 360h1214l-604 1201zM362 324l-284 -560l-8 -7l-7 -3q-8 0 -14 5t-6 14v5l2 3l277 543h-187q-10 0 -14 4.5t-6 15.5q0 9 4 12l16 4h205l631 1235l2 5q6 15 16 16q15 0 25 -17l2 -4l915 -1814l1 -3l1 -3q0 -8 -6 -15t-14 -8l-8 3l-7 10l-284 559h-1252z" />
    <glyph glyph-name="B" unicode="B" horiz-adv-x="1280" 
d="M254 -233q-26 0 -33.5 7.5t-7.5 30.5v816h-193q-10 0 -14 4.5t-6 15.5q0 9 4 12l16 4h193v928q0 10 11 16.5t30 6.5h391q272 0 430 -138.5t158 -373.5q0 -166 -105 -293t-278 -168q131 -48 201.5 -154.5t70.5 -255.5q0 -220 -134.5 -339t-385.5 -119h-348zM684 621h-432
v-818h299q62 0 111.5 3t89.5 10q75 12 131 43q95 53 147.5 149t52.5 215q0 184 -106 291t-293 107zM670 1569h-418v-912h399q146 0 216.5 18.5t138.5 63.5q86 58 137 153.5t51 201.5q0 210 -144.5 342.5t-379.5 132.5z" />
    <glyph glyph-name="C" unicode="C" horiz-adv-x="1741" 
d="M1640 1397l7 -6l10 -14l4 -9q0 -6 -3.5 -10t-10.5 -6l-7 1l-8 5l-6 4q-186 139 -313 184t-279 45q-160 0 -303.5 -51.5t-263.5 -148.5q-151 -126 -240.5 -314.5t-89.5 -384.5q0 -172 70 -339t195 -292t292 -195.5t340 -70.5q166 0 315.5 54.5t260.5 154.5l10 8l4 3
q10 8 18 10q7 0 10 -3.5t5 -13.5q-1 -7 -2 -9l-4 -7l-6 -6q-71 -85 -251 -156.5t-360 -71.5q-181 0 -353 72.5t-303 204t-205 303.5q-35 85 -54 175t-19 179q0 182 72 355t205 309q128 129 299 199.5t358 70.5q173 0 331.5 -60.5t274.5 -168.5z" />
    <glyph glyph-name="D" unicode="D" horiz-adv-x="1839" 
d="M252 -197h467q206 0 341.5 35t252.5 113q184 122 285.5 317t101.5 424q0 250 -121 453t-338 315q-111 58 -256 84.5t-367 26.5h-366v-1768zM213 -195v1780q0 10 11 16.5t30 6.5h393q188 0 324.5 -22t240.5 -68q243 -108 384 -329.5t141 -496.5q0 -217 -87.5 -403.5
t-250.5 -317.5q-135 -109 -293 -157q-77 -23 -184 -35t-244 -12h-424q-26 0 -33.5 7.5t-7.5 30.5z" />
    <glyph glyph-name="E" unicode="E" horiz-adv-x="1612" 
d="M213 324h-193q-10 0 -14 4.5t-6 15.5q0 9 4 12l16 4h193v1225q0 10 11 16.5t30 6.5h1190q7 0 13.5 -6.5t6.5 -14.5t-5 -12l-15 -4h-1192v-1211h1227q6 0 13 -6t7 -14t-5 -12l-15 -4h-1227v-521h1192q7 0 13.5 -4.5t6.5 -11.5q0 -12 -3.5 -15t-16.5 -5h-1190
q-26 0 -33.5 7.5t-7.5 30.5v519z" />
    <glyph glyph-name="F" unicode="F" horiz-adv-x="1554" 
d="M213 324h-193q-10 0 -14 4.5t-6 15.5q0 9 4 12l16 4h193v1225q0 10 9.5 16.5t29.5 6.5h1192q7 0 13.5 -6.5t6.5 -14.5t-5 -12l-15 -4h-1192v-1211h1227q6 0 13 -6t7 -14t-5 -12l-15 -4h-1227v-545q0 -9 -5.5 -15t-15.5 -6q-8 0 -14 6l-4 15v545z" />
    <glyph glyph-name="G" unicode="G" horiz-adv-x="1931" 
d="M1841 332h-1059q-10 0 -14 4t-6 14q0 9 4 13l16 4h1078q13 0 18 -5q6 -3 6 -14q0 -21 -41 -95.5t-104 -154.5q-133 -165 -313.5 -252.5t-391.5 -87.5q-180 0 -351.5 72.5t-303.5 203t-205.5 305.5t-73.5 353q0 182 72 355t205 309q128 129 299 199.5t358 70.5
q165 0 314.5 -54t250.5 -147l7 -8l10 -13l4 -9q0 -7 -3.5 -11t-10.5 -6l-11 6l-3 2l-7 5q-153 114 -277 157t-274 43q-160 0 -303.5 -51.5t-263.5 -148.5q-151 -126 -240.5 -314.5t-89.5 -384.5q0 -172 70 -339t196.5 -293t293.5 -196.5t337 -70.5q265 0 476.5 141
t330.5 398z" />
    <glyph glyph-name="H" unicode="H" horiz-adv-x="1731" 
d="M213 1595q0 9 6 15t14 6t14 -6q3 -3 5 -15v-1235h1227v1235q0 10 5 15t15 6q8 0 14 -6q3 -3 5 -15v-1816q0 -9 -6 -15t-15 -6q-8 0 -14 6q-2 2 -4 15v545h-1227v-545q0 -9 -5.5 -15t-15.5 -6q-8 0 -14 6l-4 15v545h-135q-10 0 -15.5 5.5t-5.5 14.5t5 12l16 4h135v1235z
" />
    <glyph glyph-name="I" unicode="I" horiz-adv-x="512" 
d="M238 1595q0 10 5 15t15 6q9 0 12 -5q3 -2 4 -16v-1816q0 -9 -5.5 -15t-14.5 -6t-12.5 5t-3.5 16v1816z" />
    <glyph glyph-name="J" unicode="J" horiz-adv-x="1788" 
d="M1501 639q0 -198 -24.5 -331t-77.5 -220q-93 -158 -259.5 -246t-369.5 -88q-247 0 -444 147.5t-252 368.5l-2 9l-2 8q0 6 3.5 10t12.5 6q7 0 12 -5q5 -3 9 -14l2 -5q84 -239 259 -363.5t423 -124.5q157 0 298 66.5t236 187.5q74 93 106.5 235.5t32.5 401.5v915q0 9 6 15
t15 6t12 -5q3 -2 4 -16v-958z" />
    <glyph glyph-name="K" unicode="K" horiz-adv-x="1714" 
d="M252 502v-723q0 -9 -5.5 -15t-15.5 -6q-8 0 -14 6l-4 15v1816q0 9 6 15t14 6t14 -6q3 -3 5 -15v-1034l1380 1051l5 3l8 3q6 0 12 -6.5t6 -16.5l-3 -6l-5 -6l-1381 -1051l1395 -737l7 -7l3 -9q0 -8 -5 -13q-3 -5 -11 -6l-8 2l-7 3z" />
    <glyph glyph-name="L" unicode="L" horiz-adv-x="1554" 
d="M252 -197h1192q7 0 13.5 -4.5t6.5 -11.5q0 -12 -3.5 -15t-16.5 -5h-1190q-26 0 -33.5 7.5t-7.5 30.5v1790q0 9 6 15t14 6t14 -6q3 -3 5 -15v-1792z" />
    <glyph glyph-name="M" unicode="M" horiz-adv-x="1896" 
d="M1647 1546l-672 -874l-5 -7q-9 -14 -22 -14q-6 0 -12.5 3.5t-13.5 16.5l-670 875v-1767q0 -9 -5.5 -15t-15.5 -6q-8 0 -12 5l-4 16v1814q0 15 3 19t13 6q11 0 22 -14l5 -7l690 -901l690 901l5 6q12 15 24 15q8 0 12 -7l4 -18v-1814q0 -9 -5.5 -15t-14.5 -6t-12.5 5
t-3.5 16v1767z" />
    <glyph glyph-name="N" unicode="N" horiz-adv-x="1911" 
d="M252 1546v-1767q0 -9 -5.5 -15t-15.5 -6q-8 0 -12 5l-4 16v1814q0 15 3 19t13 6q10 0 15 -4l6 -9l6 -8l1403 -1767v1765q0 10 4.5 16t11.5 7q10 0 15 -4.5t6 -18.5v-1812q0 -12 -3.5 -18.5t-13.5 -6.5q-12 0 -24 16l-4 5z" />
    <glyph glyph-name="O" unicode="O" horiz-adv-x="2066" 
d="M137 692q0 -173 69 -339t194.5 -291.5t292.5 -196.5q82 -34 167.5 -52t173.5 -18q174 0 340 69t293 194t194.5 290t67.5 344q0 184 -66.5 349t-193 290.5t-290.5 192.5t-345 67q-156 0 -300.5 -51.5t-266.5 -150.5q-155 -130 -242.5 -314.5t-87.5 -382.5zM100 692
q0 183 72 358t202 305t302 200.5t358 70.5q190 0 360.5 -69.5t301.5 -201t201.5 -303.5t70.5 -360q0 -163 -54 -315t-157 -277q-130 -158 -323.5 -250t-399.5 -92q-182 0 -356 72q-87 37 -161.5 86.5t-141.5 116.5q-127 127 -201 302t-74 357z" />
    <glyph glyph-name="P" unicode="P" horiz-adv-x="1597" 
d="M627 1608q193 0 301 -12.5t192 -43.5q198 -69 302 -223.5t104 -382.5q0 -186 -78 -333.5t-219 -227.5q-98 -55 -242 -79q-68 -11 -194 -17t-306 -6h-235v-504q0 -9 -5.5 -15t-15.5 -6q-8 0 -14 6l-4 15v1806q0 10 11 16.5t30 6.5h373zM674 1571h-422v-1252h276
q308 0 433.5 18t216.5 60q146 69 228.5 214t82.5 333q0 321 -198.5 474t-616.5 153z" />
    <glyph glyph-name="Q" unicode="Q" horiz-adv-x="2066" 
d="M1378 -135l-114 133q-285 338 -453 338q-85 0 -189 -80l-7 -6l-7 -6l-5 -3l-9 -1q-7 0 -12 4l-4 10l1 6l5 6l4 6q33 39 99 69t130 30q181 0 482 -358l114 -134q237 110 376.5 330.5t139.5 482.5q0 184 -66.5 349t-191 290t-290.5 193q-82 33 -168.5 50t-178.5 17
q-156 0 -300.5 -51.5t-266.5 -150.5q-155 -130 -242.5 -314.5t-87.5 -382.5q0 -173 69 -339t194.5 -291.5t293.5 -196t340 -70.5q44 0 87 4t85.5 12.5t85 21.5t86.5 32zM1405 -164q-93 -38 -187 -58t-184 -20q-182 0 -356 72q-87 37 -161.5 86.5t-141.5 116.5
q-129 129 -202 302.5t-73 356.5t72 357.5t202 305t302 201t358 70.5q190 0 360.5 -69.5t301.5 -201t201.5 -303.5t70.5 -360q0 -272 -138.5 -493t-389.5 -346q133 -130 202 -165.5t150 -35.5q22 0 37 2t34 8t43 17t52 28l7 5l7 4l8 1q6 0 10 -4l5 -12l-3 -9l-7 -9l-5 -5
q-29 -23 -87.5 -42t-106.5 -19q-92 0 -176 46.5t-205 172.5z" />
    <glyph glyph-name="R" unicode="R" horiz-adv-x="1694" 
d="M674 473l1018 -684l7 -7l3 -7q0 -5 -5.5 -12t-13.5 -7l-5 2l-5 2l-1065 713l-5 3q-15 6 -15 20q0 6 3 10t13 6h4h10h4l132 -4q182 0 283 16.5t175 55.5q129 62 196 179t67 281q0 140 -56.5 252t-165.5 187q-72 48 -165.5 69t-256.5 21h-579v-1790q0 -9 -5.5 -15t-15.5 -6
q-8 0 -14 6l-4 15v1806q0 10 11 16.5t30 6.5h604q312 0 482.5 -148t170.5 -420q0 -279 -180.5 -425t-527.5 -146l-79 1z" />
    <glyph glyph-name="S" unicode="S" horiz-adv-x="1679" 
d="M1569 1317l4 -6l8 -17q0 -6 -5.5 -13t-14.5 -7l-8 3l-7 7l-6 8q-95 131 -290 212t-425 81q-298 0 -482.5 -133t-184.5 -340q0 -174 130.5 -279.5t393.5 -144.5l181 -24q299 -36 409 -93q99 -51 154 -140t55 -198q0 -207 -174 -343t-447 -136q-117 0 -222.5 23.5
t-197.5 70.5q-29 15 -58.5 33t-59.5 41q-57 42 -64 53l-4 7l-3 4q-3 4 -5 12q0 6 5 11t13 5q7 0 11 -2l10 -6l6 -6q98 -98 248.5 -154.5t318.5 -56.5q256 0 421 125.5t165 316.5q0 103 -52.5 185.5t-151 129.5t-386.5 83q-47 6 -95.5 12t-60.5 8q-296 42 -436.5 154
t-140.5 307q0 231 196.5 371.5t530.5 140.5q142 0 269 -31.5t235 -93.5q74 -41 139 -97.5t78 -82.5z" />
    <glyph glyph-name="T" unicode="T" horiz-adv-x="1421" 
d="M729 -221q0 -9 -5.5 -15t-14.5 -6t-13 5l-4 16v1792h-614q-10 0 -15.5 5.5t-5.5 14.5t5 13l16 4h1268q11 0 15 -5q5 -3 5 -16q0 -5 -6 -11q-5 -3 -14 -5h-617v-1792z" />
    <glyph glyph-name="U" unicode="U" horiz-adv-x="1878" 
d="M1692 510q0 -173 -38 -290q-19 -58 -49 -110.5t-73 -99.5q-112 -122 -266 -189t-328 -67q-173 0 -325 65t-267 191q-84 92 -123 210.5t-39 289.5v1085q0 9 6 15t15 6q8 0 14 -6q2 -2 4 -15v-1079q0 -174 37 -287.5t121 -203.5q107 -115 249.5 -175.5t307.5 -60.5
q163 0 307.5 60.5t251.5 175.5q83 87 120.5 202t37.5 289v1079q0 9 6 15t14 6q9 0 13 -5q3 -2 4 -16v-1085z" />
    <glyph glyph-name="V" unicode="V" horiz-adv-x="1976" 
d="M78 1605l905 -1795l915 1796l7 7q3 3 8 3q9 0 14.5 -5t5.5 -14l-1 -4l-1 -4l-925 -1814l-3 -5q-7 -15 -16 -16q-13 0 -25 18l-1 3l-916 1814l-2 2v4q0 8 6 15t14 8l7 -3z" />
    <glyph glyph-name="W" unicode="W" horiz-adv-x="2370" 
d="M932 -225q-5 -12 -12 -17l-9 -4q-15 0 -24 19l-877 1818l-2 3v5q0 8 5.5 13.5t13.5 5.5l8 -3l8 -7l866 -1798l256 530l-604 1251l-2 3v5q0 8 5.5 13.5t13.5 5.5l8 -3l8 -7l592 -1227l602 1227l8 7q3 3 8 3t12 -6t7 -13l-1 -6l-616 -1253l254 -530l879 1798l7 7l7 3
q9 0 15 -6t6 -15l-1 -4l-890 -1818q-5 -12 -12 -17l-9 -4q-11 0 -16 5q-4 2 -10 15l-246 525z" />
    <glyph glyph-name="X" unicode="X" horiz-adv-x="1698" 
d="M119 -233l-8 -6l-7 -3q-6 0 -12 5.5t-6 11.5l1 9l3 5l727 897l-727 901l-3 5l-1 7q0 7 3.5 11t12.5 6l9 -2l8 -4l725 -895l735 895l6 4l8 2q7 0 13 -5q3 -2 4 -5t2 -4l-2 -8l-4 -7l-740 -901l740 -897l4 -6l2 -8q0 -5 -6 -11t-13 -6l-7 3l-7 6l-737 892z" />
    <glyph glyph-name="Y" unicode="Y" horiz-adv-x="1593" 
d="M815 -221q0 -9 -5.5 -15t-14.5 -6t-13 5l-4 16v907l-723 901l-5 7l-1 5q0 5 6 11t13 6l7 -2l7 -4l715 -889l712 889l8 4l9 2q7 0 13 -6q4 -2 5 -11q-1 -5 -2.5 -8t-3.5 -4l-723 -901v-907z" />
    <glyph glyph-name="Z" unicode="Z" horiz-adv-x="1708" 
d="M1505 1571h-1366q-10 0 -14 4.5t-6 15.5q0 9 4 13l16 4h1393q13 0 18 -5q6 -3 6 -16l-2 -11l-10 -15l-1407 -1758h1399q9 0 14.5 -4.5t5.5 -11.5q0 -12 -3.5 -15t-16.5 -5h-1430q-12 0 -17 3.5t-5 14.5q0 6 5 14l6 10l5 6z" />
    <glyph glyph-name="bracketleft" unicode="[" horiz-adv-x="680" 
d="M338 -426q-24 0 -31.5 7t-7.5 28v1976q0 10 9.5 16.5t29.5 6.5h186q9 0 15 -6.5t6 -14.5q0 -7 -6 -12l-15 -4h-188v-1962h188q10 0 15.5 -3.5t5.5 -13.5q0 -7 -7 -13q-3 -4 -14 -5h-186z" />
    <glyph glyph-name="backslash" unicode="\" horiz-adv-x="696" 
d="M-6 1597l735 -1826l3 -8l1 -5q0 -6 -3.5 -9t-12.5 -3l-9 3l-8 10l-737 1826l-1 4l-3 10l4 8q2 4 8 5q6 0 12.5 -3.5t10.5 -11.5z" />
    <glyph glyph-name="bracketright" unicode="]" horiz-adv-x="680" 
d="M342 1608q24 0 31.5 -6.5t7.5 -30.5v-1977q0 -9 -10 -14.5t-29 -5.5h-186q-10 0 -15 5q-5 3 -6 13q0 9 4 12.5t17 4.5h188v1962h-188q-11 0 -17 3q-2 3 -4 13q0 9 5.5 14.5t15.5 6.5h186z" />
    <glyph glyph-name="asciicircum" unicode="^" horiz-adv-x="2048" 
d="M973 1456h98l549 -553h-109l-487 483l-489 -483h-109z" />
    <glyph glyph-name="underscore" unicode="_" horiz-adv-x="1024" 
d="M0 -422h1024v-61h-1024v61z" />
    <glyph glyph-name="grave" unicode="`" horiz-adv-x="1024" 
d="M350 918l223 -230l5 -8l2 -8q-3 -8 -5 -10.5t-10 -4.5l-6 1l-8 8l-221 227l-8 10l-3 8q0 6 4 9.5t11 3.5q7 -1 9 -2z" />
    <glyph glyph-name="a" unicode="a" horiz-adv-x="870" 
d="M686 551h-31q-218 0 -386.5 -123.5t-168.5 -269.5q0 -62 39.5 -100t104.5 -38q138 0 267.5 152t174.5 379zM723 16q0 -11 -3 -14.5t-13 -5.5q-10 0 -16 5q-3 4 -5 15v412q-60 -195 -188 -318q-64 -62 -126.5 -93t-127.5 -31q-83 0 -132 45t-49 127q0 160 183 296t401 136
l29 -1l18 -1h6q12 -1 17.5 -7.5t5.5 -19.5v-545z" />
    <glyph glyph-name="b" unicode="b" horiz-adv-x="811" 
d="M182 461v-350q50 -42 113 -68q30 -11 61 -17t64 -6q118 0 200 79.5t82 193.5t-75 186t-197 72q-62 0 -122 -22q-30 -10 -61.5 -27t-64.5 -41zM182 500q63 44 127.5 66t126.5 22q139 0 222 -81t83 -218q0 -126 -91.5 -214.5t-223.5 -88.5q-75 0 -144.5 23.5t-113.5 62.5
l-8 8q-6 5 -9.5 13.5t-4.5 15.5t-1 22v1460q0 9 5.5 14.5t15.5 6.5q8 0 12 -7l4 -18v-1087z" />
    <glyph glyph-name="c" unicode="c" horiz-adv-x="711" 
d="M614 86l5 4l5 3l13 5q2 -1 4.5 -2t5 -4t4.5 -12l-2 -10l-5 -6l-5 -3q-44 -34 -106.5 -54.5t-120.5 -20.5q-148 0 -244 85.5t-96 217.5q0 122 94.5 210.5t224.5 88.5q69 0 129 -16t107 -46l6 -4l15 -12q3 -3 3 -10t-3 -11t-11 -6q-9 3 -12 5l-9 6l-6 2q-47 25 -101 40
t-112 15q-123 0 -205.5 -76t-82.5 -186q0 -112 87 -189t216 -77q55 0 106 15t96 48z" />
    <glyph glyph-name="d" unicode="d" horiz-adv-x="870" 
d="M686 551h-31q-218 0 -386.5 -123.5t-168.5 -269.5q0 -62 39.5 -100t104.5 -38q138 0 267.5 152t174.5 379zM686 1591q0 9 6 15t15 6q5 0 11 -7q3 -4 5 -18v-1571q0 -11 -3 -14.5t-13 -5.5q-10 0 -16 5q-3 4 -5 15v412q-60 -195 -188 -318q-64 -62 -126.5 -93t-127.5 -31
q-83 0 -132 45t-49 127q0 165 182 297.5t431 132.5h10v1003z" />
    <glyph glyph-name="e" unicode="e" horiz-adv-x="731" 
d="M111 320l512 -1q-10 105 -81.5 169.5t-174.5 64.5q-101 0 -174 -66t-82 -167zM111 283q0 -120 72 -190t194 -70q59 0 108.5 18t118.5 80l4 2l10 7l9 3q6 0 11 -5q4 -2 5 -11l-2 -10l-6 -9l-4 -4q-55 -55 -119 -81.5t-143 -26.5q-135 0 -216 82.5t-81 220.5
q0 129 85.5 215t215.5 86q116 0 201 -85t85 -192v-4q0 -13 -6.5 -19.5t-21.5 -6.5h-520z" />
    <glyph glyph-name="f" unicode="f" horiz-adv-x="694" 
d="M266 573h393q9 0 15 -6t6 -14t-5 -12l-16 -4h-393v-906q0 -10 -4 -14t-16 -6q-8 0 -13 5l-4 15v906h-135q-10 0 -14 4.5t-6 15.5q0 9 4 12l16 4h135l-4 725v9q0 147 60 226t176 79q72 0 124 -27t87 -82q13 -22 21.5 -53.5t8.5 -50.5v-6l-2 -4v-7q0 -5 -4.5 -9.5
t-13.5 -6.5q-6 0 -11 4l-5 16l-2 5q-8 86 -62 135t-139 49q-101 0 -151 -66t-50 -198v-8z" />
    <glyph glyph-name="g" unicode="g" horiz-adv-x="870" 
d="M686 551h-31q-218 0 -386.5 -123.5t-168.5 -269.5q0 -62 39.5 -100t104.5 -38q138 0 267.5 152t174.5 379zM686 428q-60 -195 -188 -318q-64 -62 -126.5 -93t-127.5 -31q-83 0 -132 45t-49 127q0 160 183 296t401 136l29 -1l18 -1h6q12 -1 17.5 -7.5t5.5 -19.5v-606
q0 -154 -81.5 -240t-225.5 -86q-46 0 -85.5 9t-74.5 29q-68 36 -109 110l-2 4l-2 3v7q0 10 5 15.5t12 5.5l7 -2l7 -5l4 -4q61 -82 115.5 -108.5t138.5 -26.5q119 0 186.5 78.5t67.5 218.5v465z" />
    <glyph glyph-name="h" unicode="h" horiz-adv-x="782" 
d="M182 16q0 -9 -4.5 -14t-15.5 -6q-9 0 -13 4l-4 16v428l-18 -11l-22 -13l-7 -2l-3 -2l-13 -4l-9 3q-3 3 -3 9q0 10 11 20l3 2l4 3l22 13l35 21v1108q0 9 5.5 14.5t15.5 6.5q8 0 12 -7l4 -18v-1083q30 18 63 34.5t64 27.5q63 22 111 22q116 0 169.5 -67t53.5 -218v-287
q0 -6 -6 -13t-14 -7q-9 0 -14 4l-5 16l-2 287q0 132 -41 190t-133 58q-58 0 -115.5 -20t-130.5 -64v-451z" />
    <glyph glyph-name="i" unicode="i" horiz-adv-x="356" 
d="M178 1038q20 0 33.5 -14t13.5 -33t-14 -33t-33 -14t-33 15t-14 32q0 19 15 33t32 14zM197 16q0 -6 -6 -13t-15 -7t-12.5 4.5t-3.5 15.5v551q0 9 6 15t14 6t11.5 -5.5t5.5 -19.5v-547z" />
    <glyph glyph-name="j" unicode="j" horiz-adv-x="346" 
d="M168 1038q19 0 33 -14t14 -33t-14 -33t-33 -14t-33 15t-14 32q0 19 15 33t32 14zM186 -45q0 -150 -70 -238t-184 -88h-8l-14 2q-10 0 -15 5q-6 3 -6 12t4.5 13.5t16.5 6.5h10q112 0 171 77t59 224v598q0 10 5 15t15 6q8 0 12 -7l4 -18v-608z" />
    <glyph glyph-name="k" unicode="k" horiz-adv-x="764" 
d="M145 1591q0 9 5.5 14.5t15.5 6.5q8 0 12 -7l4 -18v-1319l454 313l6 4l5 3q9 0 15 -6q5 -3 6 -13q-2 -7 -4 -9l-9 -7l-399 -277l12 1l125 4q123 0 162 -29.5t39 -110.5v-6l-2 -117l-2 -41v-6q0 -46 22.5 -70t63.5 -24q22 0 40.5 12.5t37.5 40.5l4 7l5 5l9 1q6 -3 8 -5
l4 -14l-2 -6q-1 -5 -2 -6l-2 -4q-13 -26 -45 -47q-32 -19 -61 -19q-55 0 -88 33q-31 33 -31 88l2 41l2 111v10q0 73 -27.5 97t-121.5 24q-13 0 -43.5 -1t-48.5 -1l-134 -7v-221q0 -9 -4.5 -14t-15.5 -6q-9 0 -13 4l-4 16v1575z" />
    <glyph glyph-name="l" unicode="l" horiz-adv-x="356" 
d="M160 1591q0 9 6 15t14 6t11.5 -5.5t5.5 -19.5v-1571q0 -6 -6 -13t-15 -7t-12.5 4.5t-3.5 15.5v1575z" />
    <glyph glyph-name="m" unicode="m" horiz-adv-x="1171" 
d="M182 434q83 71 155.5 111.5t123.5 40.5q68 0 104 -35q18 -16 28.5 -42t10.5 -58q90 68 161 102.5t132 34.5q71 0 102 -35q15 -18 23 -46t8 -69v-51v-371q0 -9 -4.5 -14t-15.5 -6q-9 0 -13 4l-4 16v373q0 93 -22 127.5t-76 34.5q-55 0 -129 -37q-35 -18 -75.5 -44
t-86.5 -62v-392q0 -9 -4.5 -14t-15.5 -6q-9 0 -13 4l-4 16v351q0 107 -23.5 145.5t-82.5 38.5q-47 0 -115 -39.5t-164 -122.5v-373q0 -9 -4.5 -14t-15.5 -6q-9 0 -13 4l-4 16v551q0 9 5.5 14.5t15.5 6.5q8 0 12 -7l4 -18v-129z" />
    <glyph glyph-name="n" unicode="n" horiz-adv-x="797" 
d="M182 16q0 -9 -4.5 -14t-15.5 -6q-9 0 -13 4l-4 16v551q0 9 5.5 14.5t15.5 6.5q8 0 12 -7l4 -18v-119q82 75 153.5 109.5t139.5 34.5q90 0 136 -56.5t46 -171.5v-344q0 -9 -4.5 -14t-15.5 -6q-9 0 -14 4l-5 16v353q0 94 -36 138t-115 44q-62 0 -132 -39t-153 -119v-377z
" />
    <glyph glyph-name="o" unicode="o" horiz-adv-x="743" 
d="M373 551q-109 0 -186.5 -78.5t-77.5 -185.5q0 -106 78 -185t186 -79t185 77t77 187q0 111 -76 187.5t-186 76.5zM373 588q126 0 213.5 -87.5t87.5 -213.5q0 -125 -89 -213q-44 -44 -96 -66t-116 -22q-123 0 -212 89t-89 212q0 122 87 211.5t214 89.5z" />
    <glyph glyph-name="p" unicode="p" horiz-adv-x="729" 
d="M180 479v-397q35 -28 73.5 -42.5t80.5 -14.5q119 0 203 87t84 214q0 105 -57 165t-156 60q-55 0 -109.5 -17t-118.5 -55zM180 -369q0 -8 -5.5 -14t-14.5 -6t-12 3.5t-5 16.5v824l-35 -24q-20 -15 -28 -15q-6 0 -10 3.5t-4 12.5q0 12 14 25q10 8 30.5 21t32.5 20v69
q0 10 4.5 14.5t14.5 6.5q8 0 14 -6q2 -2 4 -15v-47q68 36 122 52q29 8 54.5 12t55.5 4q111 0 179 -71t68 -187q0 -143 -92.5 -241.5t-228.5 -98.5q-49 0 -85 11q-20 6 -36.5 14.5t-36.5 23.5v-408z" />
    <glyph glyph-name="q" unicode="q" horiz-adv-x="870" 
d="M686 551h-31q-218 0 -386.5 -123.5t-168.5 -269.5q0 -62 39.5 -100t104.5 -38q138 0 267.5 152t174.5 379zM723 -369q0 -11 -3 -14.5t-13 -5.5q-9 0 -15 6t-6 14v797q-60 -195 -188 -318q-64 -62 -126.5 -93t-127.5 -31q-83 0 -132 45t-49 127q0 160 183 296t401 136
l29 -1l18 -1h6q12 -1 17.5 -7.5t5.5 -19.5v-930z" />
    <glyph glyph-name="r" unicode="r" horiz-adv-x="741" 
d="M246 428q0 70 -15.5 96.5t-54.5 26.5q-47 0 -122 -56l-25 -18l-4 -2l-6 -3l-5 -1q-6 0 -10.5 3t-5.5 9q0 7 2 10l6 7l4 4q49 43 91 63.5t81 20.5q48 0 74.5 -34t26.5 -97v-58q123 119 182 154t113 35q63 0 102 -39.5t39 -104.5q0 -55 -25 -93.5t-76 -61.5l-5 -2l-5 -2h-6
q-7 2 -9.5 4.5t-2.5 9.5l2 7l6 5l4 2q45 25 63.5 54t18.5 67q0 54 -29.5 85.5t-83.5 31.5q-46 0 -113.5 -45t-174.5 -152v-338q0 -6 -6 -13t-15 -7t-12.5 4.5t-3.5 15.5v412z" />
    <glyph glyph-name="s" unicode="s" horiz-adv-x="569" 
d="M170 49l4 -4q11 -5 23.5 -9.5t28 -7.5t23.5 -4t27 -1q57 0 89 24.5t32 69.5q0 37 -19 57q-17 20 -81 43l-26 9q-156 51 -156 153q0 90 69 150q34 29 78 44t98 15q26 0 36.5 -1.5t37 -8t43.5 -17.5l6 -4q8 -5 12 -11l5 -11q0 -8 -5 -13l-12 -4l-5 1l-7 3l-9 5
q-23 12 -53 19q-13 3 -28 5t-31 2q-88 0 -144 -48.5t-56 -121.5q0 -81 151 -132l22 -7q60 -19 86.5 -47.5t26.5 -73.5q0 -60 -44.5 -98.5t-117.5 -38.5q-20 0 -31 1t-39.5 6.5t-45.5 16.5l-4 2q-7 3 -10 7l-3 12q0 8 4.5 12.5t14.5 5.5h10z" />
    <glyph glyph-name="t" unicode="t" horiz-adv-x="692" 
d="M254 231v-12q0 -109 35.5 -154t118.5 -45q29 0 48.5 4t42.5 16q38 20 83 73l5 5l8 10q3 3 9 3q8 0 13 -5q6 -3 6 -11q0 -6 -7 -14l-4 -5l-2 -4q-27 -45 -84.5 -75.5t-117.5 -30.5q-102 0 -147 51q-22 26 -33 68t-11 104v10l6 318h-186q-10 0 -15.5 5.5t-5.5 14.5t5 12
l16 4h186l15 467q0 10 5.5 15.5t12.5 5.5q9 0 12.5 -4t5.5 -17l-12 -467h275q6 0 13 -6t7 -14t-5 -12l-15 -4h-277z" />
    <glyph glyph-name="u" unicode="u" horiz-adv-x="782" 
d="M135 266v301q0 9 6 15t15 6q8 0 12 -7l4 -18v-280q0 -130 54.5 -195t164.5 -65q109 0 163 63.5t54 196.5v284q0 9 6.5 15t16.5 6q8 0 12 -7l4 -18v-297q0 -134 -66 -207t-190 -73q-122 0 -189 72t-67 208z" />
    <glyph glyph-name="v" unicode="v" horiz-adv-x="711" 
d="M373 6q-5 -9 -9.5 -12.5t-13.5 -5.5q-8 0 -17 13l-3 5l-289 551l-1 3l-3 13q0 6 4.5 10t11.5 5l10 -3q5 -2 9 -8l280 -534l277 535q5 5 8 6l10 4q7 0 13 -5q6 -3 6 -10l-3 -12l-1 -4z" />
    <glyph glyph-name="w" unicode="w" horiz-adv-x="977" 
d="M483 215l-110 -209q-5 -8 -9.5 -12t-11.5 -6q-10 0 -19 16l-290 553l-1 3l-3 13q0 6 4.5 10t11.5 5l9 -3l8 -8l280 -536l113 211l-158 305l-4 8l-2 8q3 8 5 10l11 5l10 -3q7 -3 9 -8l149 -286l146 287q5 5 8 6l10 4q7 0 12 -6q3 -2 5 -9l-3 -12l-1 -4l-158 -301l112 -215
l279 536l7 7l9 4q6 0 11 -5q5 -3 6 -10l-1 -9l-3 -7l-289 -551q-4 -9 -10 -13q-3 -4 -11 -5q-8 0 -15 13l-3 5z" />
    <glyph glyph-name="x" unicode="x" horiz-adv-x="670" 
d="M109 2l-8 -4l-7 -2q-6 0 -13 5t-7 11l1 6l5 9l229 272l-223 258l-3 4l-5 10q0 5 6 11t14 6l7 -3l8 -5l219 -254l219 254l8 5q3 3 8 3q7 0 13 -7q6 -5 6 -10l-2 -7l-4 -7l-224 -256l232 -275l6 -11l2 -5q-4 -7 -8 -9.5t-13 -4.5l-8 2q-5 2 -6 4l-229 268z" />
    <glyph glyph-name="y" unicode="y" horiz-adv-x="748" 
d="M551 68q-67 -43 -119.5 -62.5t-97.5 -19.5q-102 0 -150.5 68.5t-48.5 213.5v299q0 9 6 15t15 6t12 -5q3 -2 4 -16v-301q0 -123 40.5 -184.5t121.5 -61.5q44 0 94 18t123 64v465q0 9 6 15t14 6q9 0 13 -5q3 -2 4 -16v-442l22 15l19 14l6 2l18 6q5 -3 7 -5l4 -10
q0 -10 -14 -18l-3 -2l-2 -2l-37 -25l-20 -12v-324q0 -65 -39.5 -109t-99.5 -44h-13h-6q-7 3 -9.5 5.5t-2.5 10.5q0 6 3 9.5t13 5.5h19q51 0 74.5 38.5t23.5 131.5v256z" />
    <glyph glyph-name="z" unicode="z" horiz-adv-x="676" 
d="M219 37h322q11 0 15 -5q4 -2 5 -14q0 -9 -3.5 -12.5t-16.5 -5.5h-346q-10 0 -16.5 4.5t-6.5 11.5l4 15l10 20l312 486h-228q-100 0 -143 -15t-78 -53l-4 -6l-5 -4l-7 -2q-7 0 -11 4.5t-6 11.5l2 8l9 13l2 4q26 35 82.5 55t132.5 20h278q12 0 17 -3.5t6 -12.5l-4 -13
q-3 -10 -11 -20z" />
    <glyph glyph-name="braceleft" unicode="{" horiz-adv-x="1024" 
d="M844 1477v-70h-37q-138 0 -188 -54t-50 -220v-242q0 -176 -42 -251t-150 -110q108 -33 150 -107.5t42 -252.5v-242q0 -167 49.5 -220.5t188.5 -53.5h37v-68h-33q-186 0 -255 76t-69 305v238q0 161 -58 226t-204 65l-22 -1l-23 -1l1 73q12 0 19 -2h31q140 0 198 66t58 225
v238q0 231 68.5 307t255.5 76h33z" />
    <glyph glyph-name="bar" unicode="|" horiz-adv-x="1024" 
d="M475 1565h74v-2048h-74v2048z" />
    <glyph glyph-name="braceright" unicode="}" horiz-adv-x="1024" 
d="M182 1477h33q186 0 254 -76.5t68 -306.5v-238q0 -159 57.5 -225t200.5 -66h30q14 0 21 2v-73l-24 1l-21 1q-145 0 -204.5 -65.5t-59.5 -225.5v-238q0 -228 -68 -304.5t-254 -76.5h-33v70h39q138 0 186 51.5t48 220.5v242q0 175 42.5 250.5t151.5 109.5
q-108 33 -151 109.5t-43 251.5v242q0 168 -48.5 221t-187.5 53h-37v70z" />
    <glyph glyph-name="asciitilde" unicode="~" horiz-adv-x="1706" 
d="M1530 729v-72q-102 -70 -201.5 -108.5t-185.5 -38.5q-62 0 -122 12.5t-166 52.5l-38 14q-166 62 -252 62q-82 0 -173 -37t-214 -125v74q102 74 199.5 111t187.5 37q45 0 91.5 -9.5t101.5 -27.5q15 -4 37 -12t50 -20q199 -73 298 -73q82 0 174.5 38t212.5 122z" />
    <glyph glyph-name="exclamdown" unicode="&#xa1;" horiz-adv-x="938" 
d="M945 18q0 -9 -3.5 -12.5t-16.5 -5.5h-296q-10 0 -16.5 4.5t-6.5 11.5l4 15q1 4 5.5 10t4.5 10v79q-82 -75 -153.5 -109.5t-139.5 -34.5q-90 0 -136 56.5t-46 171.5v1378q0 9 5 14t15 6q9 0 14 -4q5 -8 5 -16v-1387q0 -94 36 -138t115 -44q62 0 132 39t153 119v392
q0 16 16 16q20 0 20 -15v-537h269q11 0 15 -5q4 -2 5 -14z" />
    <glyph glyph-name="cent" unicode="&#xa2;" horiz-adv-x="1208" 
d="M899 762q0 -122 -87.5 -209.5t-209.5 -87.5t-208.5 87.5t-86.5 209.5t87.5 208.5t209.5 86.5q121 0 208 -86.5t87 -208.5z" />
    <glyph glyph-name="sterling" unicode="&#xa3;" 
d="M307 438q0 -18 -14.5 -33.5t-34.5 -15.5q-17 0 -33 15t-16 34q0 17 15 33t34 16t34 -14.5t15 -34.5zM307 37q0 -19 -14.5 -35t-34.5 -16q-18 0 -33.5 15.5t-15.5 35.5q0 18 15.5 33.5t33.5 15.5q19 0 34 -14.5t15 -34.5z" />
    <glyph glyph-name="currency" unicode="&#xa4;" horiz-adv-x="680" 
d="M469 598q0 -176 -33.5 -337.5t-99.5 -305.5q-55 -123 -130 -233t-110 -138l-6 -6l-7 -4l-9 -2q-8 0 -13 5l-4 11q0 7 9 18l3 4l9 9q166 186 259 443t93 536t-92 533.5t-260 443.5l-9 11l-3 4q-9 11 -9 18q0 6 4 10l13 4q7 -1 9 -2l7 -4l6 -4q40 -40 103 -131.5
t112 -188.5q77 -155 117.5 -332t40.5 -362z" />
    <glyph glyph-name="yen" unicode="&#xa5;" horiz-adv-x="680" 
d="M621 -412q0 -8 -5 -12l-10 -4q-7 1 -9 2l-7 4l-6 6q-44 44 -105 132t-110 186q-76 151 -119 330q-39 174 -39 366q0 173 33 333.5t100 307.5q55 126 131 236.5t109 136.5l6 4l7 4l9 2q7 0 11 -4l4 -10l-2 -10l-9 -13l-8 -10q-165 -185 -258.5 -442t-93.5 -535
q0 -284 92 -538q47 -129 111 -238t149 -203l8 -8l9 -13z" />
    <glyph glyph-name="brokenbar" unicode="&#xa6;" horiz-adv-x="623" 
d="M555 289q4 -5 -2 -11t-12 -11l-4 -5l-204 -202q-3 -4 -5 -6t-5 -3l-6 -2q-8 -3 -11 5q-7 3 -5 12q-2 4 0.5 8.5t7.5 9.5l203 203l-205 205l-6 7l-2 7q0 6 4.5 10.5t11.5 5.5q7 -1 11 -2.5t6 -3.5l203 -203l7 -7q7 -6 11 -9.5t2 -7.5zM326 289q2 -6 -3 -13q-1 -3 -12 -14
l-205 -205q-5 -5 -7 -6t-7 -2q-8 -3 -11 5q-7 3 -5 12q-2 4 2 10l5 7l204 204l-205 205l-6 6l-2 8q0 6 4.5 10.5t11.5 5.5q7 -1 11 -2.5t5 -3.5l203 -203q13 -12 14 -16q4 -4 3 -8z" />
    <glyph glyph-name="section" unicode="&#xa7;" horiz-adv-x="623" 
d="M549 66q0 -7 -4 -11t-13 -6l-9 1l-7 5l-203 203l-5 5q-12 12 -13 20l3 12l13 16l205 203l7 6l7 2q7 0 11.5 -4t5.5 -12l-2 -10l-4 -7l-205 -204l205 -205l6 -9zM324 66q0 -6 -4.5 -10.5t-12.5 -6.5l-9 1l-7 5l-203 203l-5 5q-12 12 -13 20l3 12l13 16l205 203l8 6l6 2
q6 0 11.5 -5t5.5 -11l-2 -10l-5 -7l-204 -204l204 -205l7 -9z" />
    <glyph glyph-name="dieresis" unicode="&#xa8;" horiz-adv-x="938" 
d="M945 18q0 -9 -3.5 -12.5t-16.5 -5.5h-296q-10 0 -16.5 4.5t-6.5 11.5l4 15q1 4 5.5 10t4.5 10v79q-82 -75 -153.5 -109.5t-139.5 -34.5q-90 0 -136 56.5t-46 171.5v1378q0 9 5 14t15 6q9 0 14 -4q5 -8 5 -16v-1387q0 -94 36 -138t115 -44q62 0 132 39t153 119v392
q0 16 16 16q20 0 20 -15v-537h269q11 0 15 -5q4 -2 5 -14z" />
    <glyph glyph-name="copyright" unicode="&#xa9;" 
d="M307 37q0 -19 -14.5 -35t-34.5 -16q-18 0 -33.5 15.5t-15.5 35.5q0 18 15.5 33.5t33.5 15.5q19 0 34 -14.5t15 -34.5z" />
    <glyph glyph-name="ordfeminine" unicode="&#xaa;" 
d="M330 1323q-3 -8 -5 -10l-10 -4l-12 3l-8 9l-141 274l-3 6l-1 7q3 7 6 10t10 4l9 -4q7 -3 9 -8l142 -271l3 -7z" />
    <glyph glyph-name="guillemotleft" unicode="&#xab;" 
d="M299 76l-1 -4l-5 -11l-141 -224q-2 -5 -9 -8q-3 -3 -8 -3q-6 0 -10 4t-6 12l1 7l3 6l141 227l8 7l11 3q6 0 10.5 -4t5.5 -12z" />
    <glyph glyph-name="logicalnot" unicode="&#xac;" horiz-adv-x="393" 
d="M322 299q0 -8 -4.5 -12t-18.5 -4h-207q-8 0 -14 5.5t-6 12.5q0 9 4 12l16 4h209q9 0 15 -5.5t6 -12.5z" />
    <glyph glyph-name="minus" unicode="&#xad;" horiz-adv-x="393" 
d="M322 299q0 -8 -4.5 -12t-18.5 -4h-207q-8 0 -14 5.5t-6 12.5q0 9 4 12l16 4h209q9 0 15 -5.5t6 -12.5z" />
    <glyph glyph-name="registered" unicode="&#xae;" horiz-adv-x="1329" 
d="M1169 37q0 -19 -14.5 -35t-34.5 -16q-18 0 -33.5 15.5t-15.5 35.5q0 18 15.5 33.5t33.5 15.5q19 0 34 -14.5t15 -34.5zM737 37q0 -19 -14.5 -35t-34.5 -16q-18 0 -33.5 15.5t-15.5 35.5q0 18 15.5 33.5t33.5 15.5q19 0 34 -14.5t15 -34.5zM307 37q0 -19 -14.5 -35
t-34.5 -16q-18 0 -33.5 15.5t-15.5 35.5q0 18 15.5 33.5t33.5 15.5q19 0 34 -14.5t15 -34.5z" />
    <glyph glyph-name="macron" unicode="&#xaf;" horiz-adv-x="238" 
d="M299 1472q8 -21 13 -39q10 -35 10 -64q0 -36 -11 -69.5t-40 -69.5q-21 -26 -73 -57.5t-119 -60.5q-87 -38 -118.5 -77t-31.5 -111q0 -21 -13 -21q-11 0 -12.5 14t-2 21.5t-0.5 11.5q0 66 43 110q37 38 122 75q62 26 103 50q53 31 79 61q46 53 46 122q0 45 -20 94
q-3 9 -3 15q0 12 9 12q13 0 19 -17z" />
    <glyph glyph-name="degree" unicode="&#xb0;" 
d="M367 1608q0 -7 -2 -10q-1 -5 -2 -6l-142 -271l-9 -9l-11 -3q-6 0 -9.5 3t-5.5 13l1 4l3 6l142 275q3 7 8 9l12 3q8 -3 10 -5z" />
    <glyph glyph-name="plusminus" unicode="&#xb1;" horiz-adv-x="224" 
d="M294 1300q8 -16 11 -31.5t3 -33.5q0 -46 -26 -79q-12 -14 -29.5 -22.5t-41.5 -8.5q-29 0 -64 13q-7 3 -7 12q0 18 17 12q18 -6 30.5 -9.5t24.5 -3.5q13 0 26 5.5t22.5 17t15.5 29t6 39.5q0 16 -1.5 23.5t-7.5 20.5q-15 33 -40.5 54.5t-56.5 28.5l-19.5 3t-18.5 1
q-29 0 -55.5 -6.5t-55.5 -23.5q-45 -27 -78 -73q-39 -56 -54 -132q-3 -21 -3 -43q0 -43 10.5 -89t24.5 -79q2 -4 2 -10q0 -9 -10 -9q-12 0 -17 11q-13 29 -25 78t-12 97q0 23 3 47q11 68 48.5 128.5t97.5 96.5q29 16 62 24.5t59 8.5q12 0 25.5 -2t25.5 -5q38 -11 68 -37
q26 -23 40 -53z" />
    <glyph glyph-name="twosuperior" unicode="&#xb2;" horiz-adv-x="1962" 
d="M1940 -274l-3 -9l-7 -9l-5 -5q-29 -23 -87.5 -42t-106.5 -19q-92 0 -176 47t-206 173q-40 -24 -84 -42q-153 -66 -327 -66q-173 0 -325 65t-267 191q-84 92 -123 210.5t-39 289.5v1085q0 21 21 21q18 0 18 -21v-1079q0 -174 37 -287.5t121 -203.5q107 -115 249.5 -175.5
t307.5 -60.5q163 0 307 61q17 7 39 17.5t41 21.5l-116 134q-285 338 -453 338q-85 0 -189 -80l-7 -6l-7 -6l-5 -3l-9 -1q-7 0 -12 4l-4 10l1 6l5 6l4 6q33 39 99 69t130 30q181 0 482 -358l112 -131q38 24 73 53t68 65q83 87 120.5 202t37.5 289v1079q0 21 20 21
q17 0 17 -21v-1085q0 -173 -38 -290q-19 -58 -49 -110.5t-73 -99.5q-34 -37 -72 -70t-79 -58q137 -134 206 -169.5t150 -35.5q22 0 37 2t34 8t43 17t52 28l7 5l7 4l8 1q6 0 10 -4z" />
    <glyph glyph-name="threesuperior" unicode="&#xb3;" horiz-adv-x="1171" 
d="M1030 11q0 -25 -18 -25q-19 0 -19 25v129q-85 -73 -157 -113.5t-123 -40.5q-61 0 -97.5 35.5t-42.5 104.5q-89 -71 -161 -105.5t-134 -34.5q-66 0 -97 40q-36 47 -36 160v372q0 9 5.5 14.5t14.5 5.5q5 0 10 -2.5t7 -17.5v-373q0 -91 24 -126.5t74 -35.5q109 0 291 143
v392q0 9 5 14t15 6q9 0 13 -4l4 -16v-357q0 -99 23.5 -138.5t82.5 -39.5q46 0 113 39t166 123v373q0 9 5 14t15 6q9 0 13 -4l4 -16v-547z" />
    <glyph glyph-name="acute" unicode="&#xb4;" horiz-adv-x="1878" 
d="M1779 340q0 -8 -5 -12l-15 -4h-1536v-543q0 -11 -5 -16t-13 -5q-9 0 -15 6t-6 15v543h-194q-10 0 -14 4.5t-6 15.5q0 9 4 12l16 4h194v506q0 171 39 290t123 210q115 126 267 191t325 65q174 0 328 -67t266 -189q84 -91 122 -209t38 -291v-125q-1 -13 -4.5 -17t-12.5 -4
q-8 0 -14 6t-6 15v119q0 174 -37.5 289t-120.5 202q-107 115 -251.5 175.5t-307.5 60.5q-165 0 -307.5 -60.5t-249.5 -175.5q-84 -90 -121 -203.5t-37 -287.5v-500h1536q6 0 13 -6t7 -14z" />
    <glyph glyph-name="mu" unicode="&#xb5;" horiz-adv-x="797" 
d="M733 19q0 -10 -5.5 -14.5t-15.5 -4.5h-530v-369q0 -9 -4.5 -14t-15.5 -6q-9 0 -13 4l-4 16v936q0 9 5.5 14.5t15.5 6.5q8 0 12 -7l4 -18v-119q82 75 153.5 109.5t139.5 34.5q90 0 136 -56.5t46 -171.5v-194q0 -9 -4.5 -13.5t-15.5 -6.5q-9 0 -14 4l-5 16v203
q0 94 -36 138t-115 44q-62 0 -132 -39t-153 -119v-356h530q21 0 21 -18z" />
    <glyph glyph-name="paragraph" unicode="&#xb6;" horiz-adv-x="1992" 
d="M2111 344q-2 -11 -6 -15.5t-14 -4.5h-399v-543q0 -9 -6 -15t-15 -6q-8 0 -13 5t-5 16v543h-91l-15 4q-5 4 -5 12t7 14t13 6h91v393q-16 -57 -47.5 -109t-75.5 -100q-115 -126 -267 -191t-325 -65q-174 0 -328 67t-266 189q-84 91 -122 210q-17 51 -23 105.5t-6 97.5
q0 48 5.5 95.5t24 105t48.5 110t73 98.5q112 122 266 189t328 67q173 0 325 -65t267 -191q84 -91 123 -210t39 -290v-506h399l16 -4q4 -3 4 -12zM1651 930q0 44 -10 108t-25 110q-37 113 -121 203q-107 115 -249.5 175.5t-307.5 60.5q-163 0 -307.5 -60.5t-251.5 -175.5
q-82 -87 -120 -201q-17 -51 -23 -100.5t-6 -91.5q0 -40 6 -93.5t23 -104.5q38 -114 120 -201q107 -115 251.5 -175.5t307.5 -60.5q165 0 307.5 60.5t249.5 175.5q42 45 72.5 94t54.5 108q14 34 21.5 76.5t7.5 92.5z" />
    <glyph glyph-name="cedilla" unicode="&#xb8;" horiz-adv-x="2018" 
d="M2111 344q-2 -11 -6 -15.5t-14 -4.5h-399v-543q0 -9 -6 -15t-15 -6q-8 0 -13 5t-5 16v543h-91l-15 4q-5 4 -5 12t7 14t13 6h91v500q0 174 -37 287.5t-121 203.5q-107 115 -249.5 175.5t-307.5 60.5q-163 0 -307.5 -60.5t-251.5 -175.5q-82 -87 -120 -202t-38 -289v-119
q0 -9 -6 -15t-14 -6q-9 0 -12 4t-5 17v125q0 173 38 290q19 59 49 111.5t73 98.5q112 122 266 189t328 67q173 0 325 -65t267 -191q84 -91 123 -210t39 -290v-506h399l16 -4q4 -3 4 -12z" />
    <glyph glyph-name="onesuperior" unicode="&#xb9;" horiz-adv-x="881" 
d="M947 19q0 -10 -5.5 -14.5t-15.5 -4.5h-269v-374q0 -9 -4.5 -14t-15.5 -6q-9 0 -14 4q-5 8 -5 16v374h-68q-20 0 -20 20q0 17 20 17h68v332q0 94 -36 138t-115 44q-62 0 -132 -39t-153 -119v-377q0 -9 -4.5 -14t-15.5 -6q-9 0 -13 4l-4 16v551q0 9 5.5 14.5t15.5 6.5
q8 0 12 -7l4 -18v-119q82 75 153.5 109.5t139.5 34.5q90 0 136 -56.5t46 -171.5v-323h269q21 0 21 -18z" />
    <glyph glyph-name="ordmasculine" unicode="&#xba;" horiz-adv-x="1878" 
d="M1779 1036q0 -8 -7 -14t-13 -6h-1536v-500q0 -174 37 -287.5t121 -203.5q107 -115 249.5 -175.5t307.5 -60.5q163 0 307.5 60.5t251.5 175.5q83 87 120.5 202t37.5 289v119q0 9 6 15t14 6q9 0 13 -5q3 -2 4 -16v-125q0 -173 -38 -290q-19 -58 -49 -110.5t-73 -99.5
q-112 -122 -266 -189t-328 -67q-173 0 -325 65t-267 191q-84 92 -123 210.5t-39 289.5v506h-194l-16 4q-4 3 -4 12q2 11 6 15.5t14 4.5h194v543q0 9 6 15t15 6q8 0 13 -5t5 -16v-543h1536l15 -4q5 -4 5 -12z" />
    <glyph glyph-name="guillemotright" unicode="&#xbb;" horiz-adv-x="797" 
d="M747 553q0 -8 -5 -12l-16 -4h-542v-332q0 -94 36 -138t115 -44q62 0 132 39t153 119v197q0 9 5 14t15 6q9 0 13 -4l4 -16v-371q0 -9 -5 -14.5t-16 -6.5q-8 0 -12 7l-4 18v119q-82 -75 -153.5 -109.5t-139.5 -34.5q-90 0 -136 56.5t-46 171.5v323h-84q-10 0 -14 4.5
t-6 15.5q0 9 4 12l16 4h84v1019q0 9 5 14t15 6q9 0 14 -4q5 -8 5 -16v-1019h542q9 0 15 -6t6 -14z" />
    <glyph glyph-name="onequarter" unicode="&#xbc;" horiz-adv-x="2085" 
d="M1968 692q0 -163 -54 -315t-157 -277q-130 -158 -323 -251q-40 -19 -86.5 -30.5t-58.5 -14.5h607q11 0 17.5 -4t6.5 -16q0 -17 -24 -17h-1675h-21q-9 0 -12.5 14.5t-3.5 28.5v334q0 9 5 14.5t13 5.5q19 0 19 -20v-342l763 1q102 0 197 13q117 16 194 48q165 69 292 194
t194.5 290t67.5 344q0 184 -66.5 349t-193 290.5t-290.5 192.5t-345 67q-156 0 -300.5 -51.5t-266.5 -150.5q-155 -130 -242.5 -314.5t-87.5 -382.5q0 -37 2.5 -66t9.5 -72q6 -21 -12 -26q-8 -2 -16 1.5t-9 12.5q-12 74 -12 150q0 183 72 358t202 305t302 200.5t358 70.5
q190 0 360.5 -69.5t301.5 -201t201.5 -303.5t70.5 -360z" />
    <glyph glyph-name="onehalf" unicode="&#xbd;" horiz-adv-x="915" 
d="M1015 -361q0 -10 -5.5 -14.5t-15.5 -4.5h-271q-7 0 -15 0.5t-13 5t-7 14.5t-2 15v773q-60 -195 -188 -318q-64 -62 -126.5 -93t-127.5 -31q-83 0 -132 45t-49 127q0 160 183 296t401 136l29 -1l18 -1h6q12 -1 17.5 -7.5t5.5 -19.5v-904h271q21 0 21 -18zM686 551h-31
q-218 0 -386.5 -123.5t-168.5 -269.5q0 -62 39.5 -100t104.5 -38q138 0 267.5 152t174.5 379z" />
    <glyph glyph-name="threequarters" unicode="&#xbe;" horiz-adv-x="1554" 
d="M1499 1035q0 -8 -7 -14t-13 -6h-1227v-1212h1008q20 0 20 -16q0 -20 -20 -20h-1008q-20 0 -29.5 6.5t-9.5 16.5v1225h-193l-16 4q-4 3 -4 12q2 11 6 15.5t14 4.5h193v545q0 21 20 21q19 0 19 -21v-545h1227l15 -4q5 -4 5 -12z" />
    <glyph glyph-name="questiondown" unicode="&#xbf;" horiz-adv-x="728" 
d="M747 553q0 -8 -5 -12l-16 -4h-542v-500h387q24 0 24 -19q0 -18 -25 -18h-386q-9 0 -17 2.5t-12 7.5q-10 12 -10 29v498h-84q-10 0 -14 4.5t-6 15.5q0 9 4 12l16 4h84v1019q0 9 5 14t15 6q9 0 14 -4q5 -8 5 -16v-1019h542q9 0 15 -6t6 -14z" />
    <glyph glyph-name="Agrave" unicode="&#xc0;" horiz-adv-x="1878" 
d="M1779 -217q0 -8 -5.5 -12t-14.5 -4h-1534q-6 0 -13 0.5t-15 7.5q-13 12 -13 28v1063q0 171 39 290t123 210q115 126 267 191t325 65q174 0 328 -67t266 -189q84 -91 122 -209t38 -291v-125q-1 -13 -4.5 -17t-12.5 -4q-8 0 -14 6t-6 15v119q0 174 -37.5 289t-120.5 202
q-107 115 -251.5 175.5t-307.5 60.5q-165 0 -307.5 -60.5t-249.5 -175.5q-84 -90 -121 -203.5t-37 -287.5v-1057h1536q6 0 13 -6t7 -14z" />
    <glyph glyph-name="Aacute" unicode="&#xc1;" horiz-adv-x="797" 
d="M677 -377q0 -10 -5.5 -14.5t-15.5 -4.5h-471q-12 0 -17.5 1.5t-11.5 6.5t-8.5 16t-2.5 13v926q0 9 5.5 14.5t15.5 6.5q8 0 12 -7l4 -18v-119q82 75 153.5 109.5t139.5 34.5q90 0 136 -56.5t46 -171.5v-344q0 -9 -4.5 -14t-15.5 -6q-9 0 -14 4l-5 16v353q0 94 -36 138
t-115 44q-62 0 -132 -39t-153 -119v-752h474q21 0 21 -18z" />
    <glyph glyph-name="Acircumflex" unicode="&#xc2;" horiz-adv-x="2225" 
d="M2235 711q0 -19 -24 -19h-159q0 -163 -54 -315t-157 -277q-130 -158 -323.5 -250t-399.5 -92q-87 0 -150 20q-75 24 -120 78q-52 64 -52 150q0 69 33 146q44 99 97 175q41 58 104 126q48 52 129 107q74 51 136 78q103 45 198.5 68t201.5 23h316q0 80 -16.5 156t-48.5 155
q-66 166 -192.5 291.5t-290.5 192.5t-345 67q-156 0 -300.5 -51.5t-266.5 -150.5q-155 -130 -243 -314q-45 -95 -66 -184t-21 -199v-915q0 -18 -18 -18q-7 0 -13 5t-6 13v915q0 103 17 185t55 174q72 174 202 304t302 200.5t358 70.5q190 0 360.5 -69.5t301.5 -201
t201 -303.5q33 -80 51 -159.5t18 -162.5h161q9 0 16.5 -5.5t7.5 -13.5zM2013 692h-318q-98 0 -175.5 -16.5t-165.5 -52.5q-165 -69 -294 -195q-62 -61 -109.5 -132.5t-83.5 -155.5q-15 -35 -22.5 -69t-7.5 -68q0 -37 9.5 -67t31.5 -55q36 -41 95 -63.5t145 -22.5
q174 0 340 69t293 194t194.5 290t67.5 344z" />
    <glyph glyph-name="Atilde" unicode="&#xc3;" horiz-adv-x="825" 
d="M839 323q0 -21 -18 -21h-110q1 -3 1 -8v-7q0 -56 -23 -113t-66.5 -100.5t-95.5 -65.5t-116 -22q-46 0 -69 26.5t-23 66.5q0 6 2 18q7 43 29 83t55 73q43 43 101 65.5t121 22.5h40q-13 76 -70 134q-76 76 -186 76q-58 0 -112.5 -17t-118.5 -55v-848q0 -8 -5.5 -14
t-14.5 -6t-12 3.5t-5 16.5v824l-35 -24q-20 -15 -28 -15q-6 0 -10 3.5t-4 12.5q0 12 14 25q10 8 30.5 21t32.5 20v69q0 10 4.5 14.5t14.5 6.5q8 0 14 -6q2 -2 4 -15v-47q68 36 124 52t107 16q126 0 214 -88q70 -70 83 -159h112q19 0 19 -18zM673 287l-1 15h-46
q-58 0 -108 -18.5t-88 -57.5q-52 -51 -72 -132q-1 -3 -1 -11q0 -27 15 -43.5t39 -16.5q108 0 185 77t77 187z" />
    <glyph glyph-name="Adieresis" unicode="&#xc4;" horiz-adv-x="2002" 
d="M2111 1032q0 -9 -4 -12l-16 -4h-399v-506q0 -171 -39 -289.5t-123 -210.5q-115 -126 -267 -191t-325 -65q-176 0 -327 65q-86 38 -144 74q-70 44 -123 102q-86 93 -122 206q-12 37 -20.5 90.5t-8.5 104.5q0 50 5.5 96.5t23.5 102.5q37 114 122 207q54 59 122 106
t144.5 80.5t153 48.5t174.5 15h715v543q0 11 5 16t13 5q9 0 15 -6t6 -15v-543h399q10 0 14 -4.5t6 -15.5zM1653 506v510h-715q-97 0 -165 -12.5t-139.5 -43.5t-140 -77t-114.5 -96q-42 -45 -71.5 -93t-47.5 -101.5t-24 -105t-6 -92.5q0 -39 6 -87.5t23 -100.5
q35 -108 120 -197q49 -52 120 -95q56 -34 129.5 -65t151.5 -46t158 -15q165 0 307.5 60.5t249.5 175.5q84 90 121 203q17 52 27 117.5t10 160.5z" />
    <glyph glyph-name="Aring" unicode="&#xc5;" horiz-adv-x="883" 
d="M951 570q0 -7 -4 -12q-9 -10 -21 -7h-237v-420q0 -23 -4.5 -34.5t-10.5 -16.5l-8 -8q-43 -39 -113 -62.5t-145 -23.5q-132 0 -223.5 88.5t-91.5 214.5q0 66 22.5 120.5t64.5 95.5q85 83 218 83h254v999q0 10 4 17.5t12 7.5q11 -1 16 -6.5t5 -14.5v-1003h237q7 2 16 -2
t9 -16zM652 111v440h-248q-65 0 -112 -17.5t-85 -54.5q-75 -72 -75 -186t82 -193.5t200 -79.5q62 0 125 23q63 26 113 68z" />
    <glyph glyph-name="AE" unicode="&#xc6;" horiz-adv-x="1878" 
d="M1692 387q-1 -13 -4.5 -17t-12.5 -4q-8 0 -14 6t-6 15v89q0 174 -37.5 289t-120.5 202q-107 115 -251.5 175.5t-307.5 60.5q-165 0 -307.5 -60.5t-249.5 -175.5q-84 -90 -121 -203.5t-37 -287.5v-695q-2 -13 -4 -15q-6 -6 -14 -6q-9 0 -15 6t-6 15v1812q0 22 22 22
q16 0 16 -21v-850q9 57 45 124t79 114q115 126 267 191t325 65q174 0 328 -67t266 -189q84 -91 122 -209t38 -291v-95z" />
    <glyph glyph-name="Ccedilla" unicode="&#xc7;" horiz-adv-x="782" 
d="M643 16q0 -6 -6 -13t-14 -7q-11 0 -16 4l-5 16v287q0 132 -41 190t-133 58q-58 0 -115.5 -20t-130.5 -64v-836q0 -9 -4.5 -14t-15.5 -6q-9 0 -13 4l-4 16v813l-18 -11l-22 -13l-7 -2l-3 -2l-13 -4l-9 3q-3 3 -3 9q0 10 11 20l3 2l4 3l22 13l35 21v1108q0 9 5.5 14.5
t15.5 6.5q8 0 12 -7l4 -18v-1083q30 18 63 34.5t64 27.5q63 22 111 22q116 0 169.5 -67t53.5 -218v-287z" />
    <glyph glyph-name="Egrave" unicode="&#xc8;" horiz-adv-x="1377" 
d="M1464 -213q0 -12 -3.5 -15t-16.5 -5h-1190q-26 0 -33.5 7.5t-7.5 30.5v1790q0 9 6 15t14 6t14 -6q3 -3 5 -15v-1792h1192q7 0 13.5 -4.5t6.5 -11.5z" />
    <glyph glyph-name="Eacute" unicode="&#xc9;" horiz-adv-x="435" 
d="M478 -377q0 -10 -5.5 -14.5t-15.5 -4.5h-272q-12 0 -17.5 1.5t-11.5 6.5t-8.5 16t-2.5 13v926q0 9 5.5 14.5t15.5 6.5q8 0 12 -7l4 -18v-922h275q21 0 21 -18z" />
    <glyph glyph-name="Ecircumflex" unicode="&#xca;" horiz-adv-x="2713" 
d="M2529 510q0 -167 -40 -290q-19 -59 -49 -111.5t-73 -98.5q-112 -122 -266 -189t-328 -67q-173 0 -325 65t-267 191q-84 92 -123 210.5t-39 289.5v505h-767v-1236q0 -9 -6 -13t-15 -4q-18 0 -18 17v1236h-93l-16 4q-4 3 -4 12q2 11 6 15.5t14 4.5h93v545q0 21 20 21
q19 0 19 -21v-545h767q8 0 16.5 -2.5t10.5 -4.5q12 -12 12 -25v-503q0 -174 37 -287.5t121 -203.5q107 -115 249.5 -175.5t307.5 -60.5q163 0 307.5 60.5t251.5 175.5q83 87 120.5 202t37.5 289v513q0 9 6 15t14 6q9 0 14 -5.5t5 -15.5v-519z" />
    <glyph glyph-name="Edieresis" unicode="&#xcb;" horiz-adv-x="1255" 
d="M1115 7q0 -9 -5 -14.5t-16 -6.5q-8 0 -12 7l-4 18v119q-82 -75 -153.5 -109.5t-139.5 -34.5q-90 0 -137 57q-23 29 -34.5 68t-11.5 103v89q0 132 -41 190t-133 58q-58 0 -115.5 -20t-130.5 -64v-836q0 -9 -4.5 -14t-15.5 -6q-9 0 -13 4l-4 16v813l-18 -11l-22 -13l-7 -2
l-3 -2l-13 -4l-9 3q-3 3 -3 9q0 10 11 20l3 2l4 3l22 13l35 21v1108q0 9 5.5 14.5t15.5 6.5q8 0 12 -7l4 -18v-1083q30 18 63 34.5t64 27.5q63 22 111 22q116 0 169.5 -67t53.5 -218v-98q0 -40 8.5 -78.5t26.5 -59.5q36 -44 115 -44q62 0 132 39t153 119v377q0 9 5 14t15 6
q9 0 13 -4l4 -16v-551z" />
    <glyph glyph-name="Igrave" unicode="&#xcc;" horiz-adv-x="2066" 
d="M1968 686q0 -161 -53.5 -311.5t-157.5 -276.5q-65 -80 -144 -140.5t-179 -108.5q-194 -91 -400 -91q-182 0 -356 72q-88 37 -162.5 86t-140.5 115q-129 129 -202 302t-73 353q0 181 71 353.5t204 305.5q63 63 138.5 112t162.5 85q19 8 46.5 15t52.5 14h-637q-21 0 -21 18
q0 19 21 19h1788q13 0 19 -3t6 -15q0 -11 -5 -15t-20 -4h-631q47 -11 50 -12q23 -7 49 -17q176 -71 302 -197q65 -66 116 -141.5t85 -159.5q71 -172 71 -358zM1929 686q0 182 -67 346q-33 82 -80 152.5t-113 135.5q-61 61 -134.5 108.5t-153.5 80.5t-168.5 49t-178.5 16
q-82 0 -155 -11.5t-147.5 -38t-138.5 -61.5t-126 -85q-79 -66 -139 -142.5t-104 -168.5q-87 -185 -87 -381q0 -171 69 -339q34 -82 82.5 -153.5t112.5 -136.5q61 -61 133.5 -108.5t156.5 -82.5t169.5 -53t173.5 -18q174 0 341 69q85 35 157.5 82.5t136 110.5t111.5 133.5
t81.5 152.5t50.5 167.5t17 175.5z" />
    <glyph glyph-name="Iacute" unicode="&#xcd;" horiz-adv-x="873" 
d="M892 574q1 -8 -4 -13.5t-12 -6.5q0 -2 -23 -3t-55 -1h-15h-12h-30t-21 1v-4q0 -21 -6.5 -61t-13.5 -60q-36 -99 -87 -178q-47 -72 -115 -138q-64 -62 -126.5 -93t-127.5 -31q-83 0 -132 45t-49 127q0 160 181 294.5t403 134.5h36v10v17t1 23q0 75 -15 147
q-24 113 -83.5 235t-165.5 245q-46 54 -116 114q-57 49 -96 74q-11 7 -15 10q-10 7 -10 18q-2 20 24 34l188 97q12 5 18 5q18 0 18 -16q0 -12 -15 -20l-189 -96q29 -14 87 -64q71 -60 135 -132q48 -54 93.5 -120t75.5 -129q63 -132 88 -240q18 -76 18 -144q0 -19 -1 -32.5
t-2 -25.5v-10l153 1q16 -2 18 -14zM683 548l-28 3q-218 0 -386.5 -123.5t-168.5 -269.5q0 -62 39.5 -100t104.5 -38q138 0 268 152q53 63 87 120q39 66 64 142q8 23 14 56t6 58z" />
    <glyph glyph-name="Icircumflex" unicode="&#xce;" horiz-adv-x="1878" 
d="M1692 -220q0 -21 -20 -21q-18 0 -18 21v848q-9 -57 -45 -124t-79 -114q-115 -126 -267 -191t-325 -65q-174 0 -328 67t-266 189q-84 91 -122 209t-38 291v708q2 14 5 17.5t12 3.5q8 0 14 -6t6 -15v-702q0 -174 38 -289t120 -202q107 -115 251.5 -175.5t307.5 -60.5
q165 0 307.5 60.5t249.5 175.5q84 90 121 203.5t37 287.5v44q2 13 4 15q6 6 14 6q9 0 15 -6t6 -15v-1160z" />
    <glyph glyph-name="Idieresis" unicode="&#xcf;" horiz-adv-x="797" 
d="M657 -368q0 -9 -5 -14.5t-16 -6.5q-8 0 -12 7l-4 18v494q-82 -75 -153.5 -109.5t-139.5 -34.5q-90 0 -136 56.5t-46 171.5v1378q0 9 5 14t15 6q9 0 14 -4l5 -16v-1387q0 -94 36 -138t115 -44q62 0 132 39t153 119v377q0 9 5 14t15 6q9 0 13 -4l4 -16v-926z" />
    <glyph glyph-name="Eth" unicode="&#xd0;" horiz-adv-x="1888" 
d="M1801 -260q-2 -6 -10.5 -10t-16.5 -1l-1584 476q-8 2 -13 7q-9 8 -12 20q-2 8 0.5 19t11.5 19l1299 1056l-228 288q-4 5 -4 12q0 14 7 18t11 4q9 0 18 -11l228 -288q4 -5 5 -8q6 -11 5 -20q-2 -14 -16 -25l-1297 -1054l1581 -475q17 -4 17 -17q0 -6 -2 -10z" />
    <glyph glyph-name="Ntilde" unicode="&#xd1;" horiz-adv-x="782" 
d="M643 16q0 -6 -6 -13t-14 -7q-9 0 -14 4l-5 16l-2 287q0 132 -41 190t-133 58q-58 0 -115.5 -20t-130.5 -64v-451q0 -9 -4.5 -14t-15.5 -6q-9 0 -13 4l-4 16v428l-18 -11l-22 -13l-7 -2l-3 -2l-13 -4l-9 3q-3 3 -3 9q0 10 11 20l3 2l4 3l22 13l35 21v1108q0 9 5.5 14.5
t15.5 6.5q8 0 12 -7l4 -18v-1083q30 18 63 34.5t64 27.5q63 22 111 22q116 0 169.5 -67t53.5 -218v-287z" />
    <glyph glyph-name="Ograve" unicode="&#xd2;" horiz-adv-x="2066" 
d="M1968 692q0 -163 -54 -315t-157 -277q-52 -63 -113 -115t-134 -95l225 -112q16 -8 16 -19q0 -4 -2 -7q-5 -8 -18 -8q-9 0 -16 4l-244 120q-98 -53 -214 -81.5t-223 -28.5q-182 0 -356 72q-88 37 -161.5 86t-141.5 117q-16 16 -25.5 41t-9.5 56q0 26 6.5 47.5t21.5 43.5
q26 38 76 62t112 24q96 0 209 -45q31 -12 128 -62l577 -289q109 61 199 148q125 124 192.5 289t67.5 344q0 184 -66.5 349t-193 290.5t-290.5 192.5t-345 67q-156 0 -300.5 -51.5t-266.5 -150.5q-155 -130 -242.5 -314.5t-87.5 -382.5q0 -39 1 -52t10 -84q2 -10 2 -12
q0 -12 -15 -16q-21 -6 -24 22q-11 60 -11 142q0 183 72 358t202 305t302 200.5t358 70.5q190 0 360.5 -69.5t301.5 -201t201.5 -303.5t70.5 -360zM1431 -110l-558 278q-99 50 -145 67q-92 35 -170 35q-53 0 -92.5 -15.5t-63 -49t-23.5 -77.5q0 -47 22 -69q63 -63 137 -112
q69 -46 153 -81t169.5 -53t173.5 -18q94 0 202 24t195 71z" />
    <glyph glyph-name="Oacute" unicode="&#xd3;" horiz-adv-x="870" 
d="M724 572l-1 -556q0 -11 -3 -14.5t-13 -5.5q-10 0 -16 5q-3 4 -5 15v412q-31 -99 -76 -178t-109 -140q-127 -124 -257 -124q-83 0 -132 45t-49 127q0 165 182 297.5t431 132.5h10l-1 9q-9 103 -40 206q-36 122 -91 203q-38 55 -102 131q-83 98 -137 138q-5 3 -11.5 10.5
t-6.5 12.5q0 15 12 24l93 75q-51 55 -114 95l-20 12q-7 6 -7 16q-2 20 24 34l110 57q12 5 18 5q18 0 18 -16q0 -12 -15 -20l-110 -56q17 -8 54 -38q46 -36 75 -69q9 -10 9 -24q0 -7 -5.5 -11.5t-10.5 -8.5l-87 -70q54 -46 132 -135t113 -142q53 -80 88 -184q27 -80 40 -164
q10 -65 10 -106zM686 551h-31q-218 0 -386.5 -123.5t-168.5 -269.5q0 -62 39.5 -100t104.5 -38q138 0 267.5 152t174.5 379z" />
    <glyph glyph-name="Ocircumflex" unicode="&#xd4;" horiz-adv-x="2047" 
d="M2166 -213q-2 -11 -6 -15.5t-14 -4.5h-454q-8 0 -15 0.5t-14 7.5q-10 10 -10 28v1057q0 174 -37 287.5t-121 203.5q-107 115 -249.5 175.5t-307.5 60.5q-163 0 -307.5 -60.5t-251.5 -175.5q-82 -87 -120 -202t-38 -289v-119q0 -9 -6 -15t-14 -6q-9 0 -12 4t-5 17v125
q0 173 38 290q19 59 49 111.5t73 98.5q112 122 266 189t328 67q173 0 325 -65t267 -191q84 -91 123 -210t39 -290v-1063h454l16 -4q4 -3 4 -12z" />
    <glyph glyph-name="Otilde" unicode="&#xd5;" horiz-adv-x="859" 
d="M947 -377q0 -10 -5.5 -14.5t-15.5 -4.5h-266q-23 0 -33 11q-6 6 -7.5 10.5t-1.5 15.5v728q0 94 -36 138t-115 44q-62 0 -132 -39t-153 -119v-377q0 -9 -4.5 -14t-15.5 -6q-9 0 -13 4l-4 16v551q0 9 5.5 14.5t15.5 6.5q8 0 12 -7l4 -18v-119q82 75 153.5 109.5t139.5 34.5
q90 0 136 -56.5t46 -171.5v-719h269q21 0 21 -18z" />
    <glyph glyph-name="Odieresis" unicode="&#xd6;" horiz-adv-x="1820" 
d="M1880 -211q-6 -14 -15.5 -18t-19.5 -4h-1795q-20 0 -31 15q-5 8 -5 22q0 11 4 19l708 1406l-297 379q-4 5 -4 12q0 12 7.5 16t13.5 4q8 0 14 -7l282 -359l249 494q4 12 17 12q4 0 10 -2q9 -5 9 -15q0 -7 -2 -11l-255 -517l1104 -1406q9 -12 9 -25q0 -9 -3 -15zM1843 -195
l-1092 1386l-698 -1386h1790z" />
    <glyph glyph-name="multiply" unicode="&#xd7;" horiz-adv-x="711" 
d="M681 1590l-383 -1001l350 -531l17 -27l1 -4q1 -2 0.5 -6t-0.5 -6q0 -7 -6 -10q-6 -5 -13 -5h-593q-6 0 -11 4.5t-5 10.5l3 13l1 3l8 18l204 534l-45 68q-3 6 -3 12q0 12 6.5 16t11.5 4q10 0 19 -12l29 -43l375 978q4 12 17 12q4 0 10 -2q9 -5 9 -15q0 -7 -2 -11zM615 38
l-336 507l-193 -507h529z" />
    <glyph glyph-name="Oslash" unicode="&#xd8;" horiz-adv-x="2059" 
d="M2166 1588q0 -9 -4 -12l-16 -4h-454v-1063q0 -171 -39 -289.5t-123 -210.5q-115 -126 -267 -191t-325 -65q-174 0 -328 67t-266 189q-84 91 -122 209t-38 291v1083q2 14 5 17.5t12 3.5q8 0 14 -6t6 -15v-1077q0 -174 38 -289t120 -202q107 -115 251.5 -175.5t307.5 -60.5
q165 0 307.5 60.5t249.5 175.5q84 90 121 203.5t37 287.5v1057q0 18 10 28q6 6 14 6.5t15 1.5h454q10 0 14 -4.5t6 -15.5z" />
    <glyph glyph-name="Ugrave" unicode="&#xd9;" horiz-adv-x="881" 
d="M951 1590q0 -19 -21 -19h-273v-1564q0 -9 -5 -14.5t-16 -6.5q-8 0 -12 7l-4 18v122q-46 -42 -80 -67q-39 -29 -74 -46q-71 -34 -139 -34q-90 0 -136 56.5t-46 171.5v344q0 9 5 14t15 6q9 0 14 -4l5 -16v-353q0 -94 36 -138t115 -44q62 0 132 39t153 119v1407
q0 9 5.5 14.5t14.5 5.5h290q21 0 21 -18z" />
    <glyph glyph-name="Uacute" unicode="&#xda;" horiz-adv-x="1480" 
d="M1358 1096q0 -166 -105 -293t-278 -168q131 -48 201.5 -154.5t70.5 -255.5q0 -220 -135 -339q-71 -63 -168 -94q-109 -35 -267 -35q-106 0 -201 45q-109 51 -172 133q-24 31 -43.5 73.5t-37.5 97.5q-2 8 -2 11q0 14 14 17q18 4 24 -18q12 -44 31 -86t42 -70
q47 -58 132 -106q108 -61 212 -61q113 0 192 16.5t140 49.5q95 53 147.5 149t52.5 215q0 184 -106 291t-293 107h-664q-10 0 -14 4.5t-6 15.5q0 12 5 15.5t15 3.5h631q75 0 127.5 4t88.5 14q71 18 139 63q41 28 78 69q33 37 59 83q51 90 51 201q0 210 -145 343
q-78 71 -170 109q-105 43 -229 43q-128 0 -248 -55q-96 -44 -152 -103q-42 -44 -73 -101q-26 -53 -29 -60q-7 -14 -20 -14q-5 0 -12.5 4t-7.5 13q0 7 6 17q16 32 33 65q34 59 79 106q69 72 175 117q118 50 244 50q128 0 241 -44q104 -40 189 -115q80 -70 119 -160t39 -213z
" />
    <glyph glyph-name="Ucircumflex" unicode="&#xdb;" horiz-adv-x="361" 
d="M221 -45q0 -150 -70 -238t-184 -88h-8l-14 2q-10 0 -15 5q-6 3 -6 12t4.5 13.5t16.5 6.5h10q112 0 171 77t59 224v598q0 10 5 15t15 6q8 0 12 -7l4 -18v-608z" />
    <glyph glyph-name="Udieresis" unicode="&#xdc;" horiz-adv-x="2142" 
d="M1975 509q0 -173 -38 -290q-19 -59 -49 -111.5t-73 -98.5q-112 -122 -266 -189t-328 -67q-173 0 -325 65t-267 191q-84 92 -123 210.5t-39 289.5v1063h-454l-16 4q-4 3 -4 12q2 11 6 15.5t14 4.5h454q7 0 14.5 -0.5t16 -9t8.5 -26.5v-1057q0 -174 37 -287.5t121 -203.5
q107 -115 249.5 -175.5t307.5 -60.5q163 0 307.5 60.5t251.5 175.5q83 87 120.5 202t37.5 289v119q0 9 6 15t14 6q9 0 13 -5q3 -2 4 -16v-125z" />
    <glyph glyph-name="Yacute" unicode="&#xdd;" horiz-adv-x="882" 
d="M742 7q0 -9 -5 -14.5t-16 -6.5q-8 0 -12 7l-4 18v119q-82 -75 -153.5 -109.5t-139.5 -34.5q-90 0 -136 56.5t-46 171.5v1357h-273q-21 0 -21 19q0 18 21 18h290q9 0 14.5 -5.5t5.5 -14.5v-1383q0 -47 10 -81.5t28 -56.5q36 -44 115 -44q62 0 132 39t153 119v377q0 9 5 14
t15 6q9 0 13 -4l4 -16v-551z" />
    <glyph glyph-name="Thorn" unicode="&#xde;" horiz-adv-x="2085" 
d="M1968 692q0 -183 -72 -358t-202 -305t-302 -200.5t-358 -70.5q-190 0 -360.5 69.5t-301.5 201t-201.5 303.5t-70.5 360q0 163 54 315t157 277q130 158 323 251q85 40 197.5 65.5t201.5 25.5q47 0 93.5 -6.5t73.5 -15.5l-386 179q-8 4 -12 7t-4 11q0 3 2 9q6 10 15 10
q4 0 16 -4l741 -346q6 -3 9 -6.5t3 -9.5t-3 -11.5t-11.5 -5.5h-13.5l-172 78q-62 28 -142 48q-105 26 -209 26q-92 0 -202 -26q-82 -19 -138 -43q-165 -69 -292 -194t-194.5 -290t-67.5 -344q0 -184 66.5 -349t193 -290.5t289.5 -192t346 -66.5q81 0 154 12t148 39
q143 51 265 150q155 130 242.5 314.5t87.5 382.5q0 37 -2.5 66t-9.5 72q-6 21 12 26q8 2 16 -1.5t9 -12.5q12 -74 12 -150z" />
    <glyph glyph-name="germandbls" unicode="&#xdf;" horiz-adv-x="797" 
d="M725 562q0 -2 -1 -16q-9 -43 -16 -70q-15 -53 -38 -111q-26 -64 -63 -127t-86 -124q-26 -31 -86 -101q-48 -56 -64 -74q-38 -43 -75 -86q-47 -55 -72 -97q-31 -51 -31 -108h421q21 0 21 -18q0 -10 -5.5 -14.5t-15.5 -4.5h-419q-12 0 -16.5 1.5t-14.5 11.5q-5 5 -6 11.5
t-2 12.5q0 31 8 59.5t24 59.5q23 44 81 113q12 14 71 82q40 45 51 58q60 68 100 117q46 56 78 109q36 59 64 128q36 89 53 177h-31q-218 0 -386.5 -123.5t-168.5 -269.5q0 -22 -18 -22q-19 0 -19 22q0 160 182.5 295.5t401.5 135.5h29l18 -1h6q12 -1 17.5 -7.5t7.5 -18.5z
" />
    <glyph glyph-name="agrave" unicode="&#xe0;" horiz-adv-x="1878" 
d="M1692 -219q-1 -14 -4 -16q-4 -5 -13 -5q-8 0 -14 6t-6 15v1079q0 174 -37.5 289t-120.5 202q-107 115 -251.5 175.5t-307.5 60.5q-165 0 -307.5 -60.5t-249.5 -175.5q-84 -90 -121 -203.5t-37 -287.5v-1079q-2 -13 -4 -15q-6 -6 -14 -6q-9 0 -15 6t-6 15v1085
q0 171 39 290t123 210q115 126 267 191t325 65q174 0 328 -67t266 -189q84 -91 122 -209t38 -291v-1085z" />
    <glyph glyph-name="aacute" unicode="&#xe1;" horiz-adv-x="797" 
d="M657 16q0 -9 -4.5 -14t-15.5 -6q-9 0 -14 4l-5 16v353q0 94 -36 138t-115 44q-62 0 -132 -39t-153 -119v-377q0 -9 -4.5 -14t-15.5 -6q-9 0 -13 4l-4 16v551q0 9 5.5 14.5t15.5 6.5q8 0 12 -7l4 -18v-119q82 75 153.5 109.5t139.5 34.5q90 0 136 -56.5t46 -171.5v-344z
" />
    <glyph glyph-name="acircumflex" unicode="&#xe2;" horiz-adv-x="2085" 
d="M1968 692q0 -163 -54 -315t-157 -277q-130 -158 -323 -251q-85 -40 -197.5 -65.5t-201.5 -25.5q-47 0 -93.5 6.5t-73.5 15.5l386 -179q9 -4 12.5 -7t3.5 -11q0 -3 -2 -9q-6 -10 -15 -10q-4 0 -16 4l-741 346q-6 3 -9 6.5t-3 9.5q0 3 3 10t11.5 7h13.5l172 -78
q62 -28 142 -48q105 -26 209 -26q92 0 202 26q82 19 138 43q165 69 292 194t194.5 290t67.5 344q0 184 -66.5 349t-193 290.5t-290.5 192.5t-345 67q-156 0 -300.5 -51.5t-266.5 -150.5q-155 -130 -242.5 -314.5t-87.5 -382.5q0 -37 2.5 -66t9.5 -72q6 -21 -12 -26
q-8 -2 -16 1.5t-9 12.5q-12 74 -12 150q0 183 72 358t202 305t302 200.5t358 70.5q190 0 360.5 -69.5t301.5 -201t201.5 -303.5t70.5 -360z" />
    <glyph glyph-name="atilde" unicode="&#xe3;" horiz-adv-x="576" 
d="M515 -370q0 -10 -5.5 -14.5t-15.5 -4.5h-299q-12 0 -16.5 1.5t-14.5 11.5q-5 5 -6 11.5t-2 12.5q0 47 18 90q22 53 82 127l151 173q-29 -24 -72.5 -38t-90.5 -14q-83 0 -132 45t-49 127t45 156.5t137 139.5q58 41 124 80q51 30 93 50q6 3 12 3q10 0 16 -9q3 -5 3 -11
q0 -10 -13 -16q-60 -32 -95 -51q-63 -35 -117 -73q-168 -119 -168 -269q0 -62 39.5 -100t104.5 -38q73 0 148 46l43 26q14 8 24 8q9 0 16 -6t7 -16q0 -5 -5 -13t-16.5 -21.5t-23.5 -27.5l-75 -87q-9 -9 -40 -45q-23 -26 -35 -41q-47 -57 -67 -94q-27 -51 -27 -101h301
q21 0 21 -18z" />
    <glyph glyph-name="adieresis" unicode="&#xe4;" horiz-adv-x="2255" 
d="M2068 -215q0 -23 -17 -23q-22 0 -22 23v907q0 103 -15.5 181.5t-51.5 166.5q-66 166 -192.5 291.5t-290.5 192.5q-74 30 -181.5 48.5t-196.5 18.5v-1149q0 -20 -18 -20q-20 0 -20 21v1148q-72 0 -155 -12q-49 -6 -93.5 -16t-82.5 -24q-143 -51 -265 -150
q-155 -130 -243 -314q-41 -86 -62 -165q-24 -89 -24 -171q0 -8 -6 -14t-14 -6q-9 0 -12 4t-5 17q0 78 19 157q16 67 52 154q72 174 203 305q65 65 141 116.5t160 86.5q46 18 105.5 33t118.5 23q82 13 163 13l38 1q97 0 204.5 -19t188.5 -52q168 -68 300.5 -201t202.5 -305
q36 -88 53.5 -172t17.5 -188v-907z" />
    <glyph glyph-name="aring" unicode="&#xe5;" horiz-adv-x="1171" 
d="M1030 -364q0 -25 -18 -25q-19 0 -19 25v504q-85 -73 -157 -113.5t-123 -40.5q-61 0 -97.5 35.5t-42.5 104.5q-89 -71 -161 -105.5t-134 -34.5q-66 0 -97 40q-36 47 -36 160v372q0 9 5 14t15 6q9 0 13 -4l4 -16v-373q0 -91 24 -126.5t74 -35.5q109 0 291 143v392q0 9 5 14
t15 6q9 0 13 -4l4 -16v-357q0 -99 23.5 -138.5t82.5 -39.5q46 0 113 39t166 123v373q0 9 5 14t15 6q9 0 13 -4l4 -16v-922z" />
    <glyph glyph-name="ae" unicode="&#xe6;" horiz-adv-x="2085" 
d="M1968 692q0 -163 -54 -315t-157 -277q-130 -158 -323 -251q-40 -19 -86.5 -30.5t-58.5 -14.5h607q11 0 17.5 -4t6.5 -16q0 -17 -24 -17h-1675h-21q-9 0 -12.5 14.5t-3.5 28.5v334q0 9 5 14.5t13 5.5q19 0 19 -20v-342l763 1q102 0 197 13q117 16 194 48q86 36 155.5 81.5
t136.5 110.5v40q0 39 -3.5 73t-15.5 70q-21 61 -47 99.5t-75 84t-102 70.5q-29 14 -120 47q-99 36 -230 50t-334 14q-81 0 -174 -8t-181.5 -16t-147.5 -8l-71 -7q-14 -2 -20 -2q-5 0 -13 4t-11 7.5t-7.5 14t-9.5 45.5t-5 58q0 183 72 358t202 305t302 200.5t358 70.5
q190 0 360.5 -69.5t301.5 -201t201.5 -303.5t70.5 -360zM1929 692q0 184 -66.5 349t-193 290.5t-290.5 192.5t-345 67q-156 0 -300.5 -51.5t-266.5 -150.5q-155 -130 -242.5 -314.5t-87.5 -382.5q0 -17 3 -41.5t9 -50.5l83 8q56 0 148 8t194.5 16.5t165.5 8.5
q200 0 338.5 -15t237.5 -50.5t130 -50.5q54 -27 107 -77t80 -90q31 -45 51 -110q12 -37 16.5 -78.5t4.5 -76.5q43 52 86 121q47 74 71 133q67 166 67 345z" />
    <glyph glyph-name="ccedilla" unicode="&#xe7;" horiz-adv-x="797" 
d="M725 551q-4 -22 -7 -37q-10 -45 -29 -98q-34 -96 -78 -170q-36 -62 -82 -121q-37 -48 -99 -117l-68 -79q-9 -9 -40 -45q-23 -26 -35 -41q-47 -57 -67 -94q-27 -51 -27 -101h421q21 0 21 -18q0 -10 -5.5 -14.5t-15.5 -4.5h-419q-12 0 -16.5 1.5t-14.5 11.5q-5 5 -6 11.5
t-2 12.5q0 47 18 90q22 53 82 127l151 173q-29 -24 -72.5 -38t-90.5 -14q-83 0 -132 45t-49 127q0 160 182.5 295.5t401.5 135.5h29l18 -1h6q12 -1 17 -8q2 -2 6 -12t2 -17zM686 551h-31q-218 0 -386.5 -123.5t-168.5 -269.5q0 -62 39.5 -100t104.5 -38q138 0 268 152
q19 22 35 43t30 45q20 34 40 77t34 86q9 25 19.5 63t15.5 65z" />
    <glyph glyph-name="egrave" unicode="&#xe8;" horiz-adv-x="2009" 
d="M2111 344q-2 -11 -6 -15.5t-14 -4.5h-399v-543q0 -12 -4 -16.5t-13 -4.5q-8 0 -14 6t-6 15v543h-93q-9 0 -14.5 4t-5.5 12t7 14t13 6h93v500q0 174 -37.5 289t-120.5 202q-107 115 -251.5 175.5t-307.5 60.5q-165 0 -307.5 -60.5t-249.5 -175.5q-84 -90 -121 -203.5
t-37 -287.5v-1079q-2 -13 -4 -15q-6 -6 -14 -6q-9 0 -15 6t-6 15v1085q0 171 39 290t123 210q115 126 267 191t325 65q174 0 328 -67t266 -189q84 -91 122 -209t38 -291v-506h399l16 -4q4 -3 4 -12z" />
    <glyph glyph-name="eacute" unicode="&#xe9;" horiz-adv-x="797" 
d="M799 19q0 -8 -5.5 -13.5t-13.5 -5.5h-287q-15 0 -19 8t-4 12q0 8 3.5 12.5t16.5 8.5q2 0 33 54q37 65 61 127q34 87 34 147q0 42 -9.5 79.5t-26.5 58.5q-36 44 -115 44q-62 0 -132 -39t-153 -119v-377q0 -9 -4.5 -14t-15.5 -6q-9 0 -13 4l-4 16v551q0 9 5.5 14.5
t15.5 6.5q8 0 12 -7l4 -18v-119q82 75 153.5 109.5t139.5 34.5q90 0 137 -57q22 -28 33.5 -72t11.5 -99q0 -52 -25 -123q-20 -56 -51 -116q-20 -38 -40 -70q-3 -5 -8 -13h246q9 0 14.5 -5.5t5.5 -13.5z" />
    <glyph glyph-name="ecircumflex" unicode="&#xea;" horiz-adv-x="1878" 
d="M1692 510q0 -173 -38 -290q-19 -58 -49 -110.5t-73 -99.5q-112 -122 -266 -189t-328 -67q-173 0 -325 65t-267 191q-84 92 -123 210.5t-39 289.5v1085q0 9 6 15t15 6q8 0 14 -6q2 -2 4 -15v-1079q0 -174 37 -287.5t121 -203.5q107 -115 249.5 -175.5t307.5 -60.5
q163 0 307.5 60.5t251.5 175.5q83 87 120.5 202t37.5 289v1079q0 9 6 15t14 6q9 0 13 -5q3 -2 4 -16v-1085z" />
    <glyph glyph-name="edieresis" unicode="&#xeb;" horiz-adv-x="797" 
d="M657 7q0 -9 -5 -14.5t-16 -6.5q-8 0 -12 7l-4 18v119q-82 -75 -153.5 -109.5t-139.5 -34.5q-90 0 -136 56.5t-46 171.5v344q0 9 5 14t15 6q9 0 14 -4l5 -16v-353q0 -94 36 -138t115 -44q62 0 132 39t153 119v377q0 9 5 14t15 6q9 0 13 -4l4 -16v-551z" />
    <glyph glyph-name="igrave" unicode="&#xec;" horiz-adv-x="2012" 
d="M2114 -214q0 -10 -5.5 -14.5t-15.5 -4.5h-423q-16 0 -16 21v840q-9 -57 -45 -124t-79 -114q-115 -126 -267 -191t-325 -65q-174 0 -328 67t-266 189q-84 91 -122 209t-38 291v95q2 14 5 17.5t12 3.5q8 0 14 -6t6 -15v-89q0 -174 38 -289t120 -202q107 -115 251.5 -175.5
t307.5 -60.5q165 0 307.5 60.5t249.5 175.5q84 90 121 203.5t37 287.5v695q2 13 4 15q6 6 14 6q9 0 15 -6t6 -15v-1787h401q21 0 21 -18z" />
    <glyph glyph-name="iacute" unicode="&#xed;" horiz-adv-x="846" 
d="M947 -376q0 -20 -19 -20h-275q-17 0 -25 9t-8 20v497q-82 -75 -153.5 -109.5t-139.5 -34.5q-90 0 -136 56.5t-46 171.5v344q0 9 5 14t15 6q9 0 14 -4l5 -16v-353q0 -94 36 -138t115 -44q62 0 132 39t153 119v1411q0 9 5 14t15 6q9 0 13 -5t4 -15v-1951h271q19 0 19 -17z
" />
    <glyph glyph-name="icircumflex" unicode="&#xee;" horiz-adv-x="1679" 
d="M1581 1294q0 -6 -5.5 -13t-14.5 -7l-8 3l-7 7l-6 8q-95 131 -290 212t-425 81q-298 0 -482.5 -133t-184.5 -340q0 -174 130.5 -279.5t393.5 -144.5l181 -24q299 -36 409 -93q99 -51 154 -140t55 -198q0 -207 -174 -343t-447 -136q-117 0 -222.5 23.5t-197.5 70.5
q-29 15 -58.5 33t-59.5 41q-57 42 -64 53l-4 7l-3 4q-3 4 -5 12q0 6 5 11t13 5q7 0 11 -2l10 -6l6 -6q98 -98 248.5 -154.5t318.5 -56.5q256 0 421 125.5t165 316.5q0 103 -52.5 185.5t-151 129.5t-386.5 83q-47 6 -95.5 12t-60.5 8q-296 42 -436.5 154t-140.5 307
q0 231 196.5 371.5t530.5 140.5q142 0 269 -31.5t235 -93.5q74 -41 139 -97.5t78 -82.5l4 -6z" />
    <glyph glyph-name="idieresis" unicode="&#xef;" horiz-adv-x="1171" 
d="M1030 8q0 -9 -4.5 -14t-15.5 -6q-9 0 -13 4l-4 16v357q0 99 -23.5 138.5t-82.5 39.5q-46 0 -113 -39t-166 -123v-373q0 -9 -4.5 -14t-15.5 -6q-9 0 -13 5t-4 15v118q-172 -140 -293 -140q-66 0 -97 40q-36 47 -36 160v372q0 9 5 14t15 6q9 0 13 -4l4 -16v-373
q0 -91 24 -126.5t74 -35.5q109 0 291 143v387q0 25 18 25q19 0 19 -25v-127q85 73 157 113.5t123 40.5q61 0 97.5 -35.5t42.5 -104.5l2 -40v-392z" />
    <glyph glyph-name="eth" unicode="&#xf0;" horiz-adv-x="1878" 
d="M1692 741q-1 -13 -4.5 -17t-12.5 -4q-8 0 -14 6t-6 15v119q0 174 -37.5 289t-120.5 202q-107 115 -251.5 175.5t-307.5 60.5q-165 0 -307.5 -60.5t-249.5 -175.5q-84 -90 -121 -203.5t-37 -287.5v-1079q-2 -13 -4 -15q-6 -6 -14 -6q-9 0 -15 6t-6 15v1085q0 171 39 290
t123 210q115 126 267 191t325 65q174 0 328 -67t266 -189q84 -91 122 -209t38 -291v-125z" />
    <glyph glyph-name="ntilde" unicode="&#xf1;" horiz-adv-x="797" 
d="M657 16q0 -9 -4.5 -14t-15.5 -6q-9 0 -14 4l-5 16v353q0 94 -36 138t-115 44q-62 0 -132 -39t-153 -119v-762q0 -9 -4.5 -14t-15.5 -6q-9 0 -13 4l-4 16v936q0 9 5.5 14.5t15.5 6.5q8 0 12 -7l4 -18v-119q82 75 153.5 109.5t139.5 34.5q90 0 136 -56.5t46 -171.5v-344z
" />
    <glyph glyph-name="ograve" unicode="&#xf2;" horiz-adv-x="1480" 
d="M1358 1096q0 -166 -105 -293t-278 -168q131 -48 201.5 -154.5t70.5 -255.5q0 -220 -135 -339q-71 -63 -168 -94q-109 -35 -267 -35q-106 0 -201 45q-109 51 -172 133q-24 31 -43.5 73.5t-37.5 97.5q-2 8 -2 11q0 14 14 17q18 4 24 -18q12 -44 31 -86t42 -70
q47 -58 132 -106q108 -61 212 -61q113 0 192 16.5t140 49.5q95 53 147.5 149t52.5 215q0 184 -106 291t-293 107h-664q-10 0 -14 4.5t-6 15.5q0 12 5 15.5t15 3.5h373q-60 12 -114 49q-46 32 -90 85q-106 128 -106 294q0 57 7.5 106t23.5 96q10 31 34 70q32 53 78 101
q69 72 175 117q118 50 244 50q128 0 241 -44q104 -40 189 -115q80 -70 119 -160t39 -213zM1319 1094q0 210 -145 343q-78 71 -170 109q-105 43 -229 43q-128 0 -248 -55q-96 -44 -152 -103q-32 -34 -59 -77q-23 -37 -43 -84q-11 -25 -18.5 -74.5t-7.5 -109.5q0 -56 12 -105
t38.5 -95t60.5 -85t77 -68q36 -24 104.5 -48.5t116.5 -24.5h120q75 0 127.5 4t88.5 14q71 18 139 63q41 28 78 69q33 37 59 83q51 90 51 201z" />
    <glyph glyph-name="oacute" unicode="&#xf3;" horiz-adv-x="870" 
d="M723 -45q0 -154 -81.5 -240t-225.5 -86q-46 0 -85.5 9t-74.5 29q-68 36 -109 110l-2 4l-2 3v7q0 10 5 15.5t12 5.5l7 -2l7 -5l4 -4q61 -82 115.5 -108.5t138.5 -26.5q119 0 186.5 78.5t67.5 218.5v465q-60 -195 -188 -318q-64 -62 -126.5 -93t-127.5 -31q-83 0 -132 45
t-49 127q0 160 183 296t401 136l29 -1l18 -1h6q12 -1 17.5 -7.5t5.5 -19.5v-606zM686 551h-31q-218 0 -386.5 -123.5t-168.5 -269.5q0 -62 39.5 -100t104.5 -38q138 0 267.5 152t174.5 379z" />
    <glyph glyph-name="ocircumflex" unicode="&#xf4;" horiz-adv-x="1035" 
d="M1039 1035q0 -8 -7 -14t-13 -6h-767v-1236q0 -9 -6 -13t-15 -4q-18 0 -18 17v1236h-93l-16 4q-4 3 -4 12q2 11 6 15.5t14 4.5h93v545q0 21 20 21q19 0 19 -21v-545h767l15 -4q5 -4 5 -12z" />
    <glyph glyph-name="otilde" unicode="&#xf5;" horiz-adv-x="468" 
d="M471 18q0 -9 -3.5 -12.5t-16.5 -5.5h-296q-10 0 -16.5 4.5t-6.5 11.5l4 15q1 4 5.5 10t4.5 10v522q0 16 16 16q20 0 20 -15v-537h269q11 0 15 -5q4 -2 5 -14z" />
    <glyph glyph-name="odieresis" unicode="&#xf6;" horiz-adv-x="2169" 
d="M2068 692q0 -163 -54 -315t-157 -277q-130 -158 -323 -251q-89 -42 -209.5 -66.5t-223.5 -24.5v-68q0 -20 -18 -20q-20 0 -20 21v68q-93 0 -198.5 19t-186.5 52q-87 37 -161.5 86.5t-141.5 116.5q-127 127 -201 302t-74 357q0 183 72 358t203 306q65 65 141 116.5
t160 86.5q46 18 105.5 33t118.5 23q82 13 163 13v85q0 6 4.5 12.5t13.5 6.5q20 0 20 -18v-85q97 0 204.5 -19t188.5 -52q168 -68 300.5 -201t203 -305t70.5 -360zM2029 692q0 184 -66.5 349t-193 290.5t-290.5 192.5q-74 30 -181.5 48.5t-196.5 18.5v-1796q87 0 192 18.5
t182 50.5q165 69 292 194t194.5 290t67.5 344zM1063 -205v1796q-72 0 -155 -12q-49 -6 -93.5 -16t-82.5 -24q-143 -51 -265 -150q-155 -130 -242.5 -314.5t-87.5 -382.5q0 -173 69 -339t194.5 -291.5t292.5 -196.5q75 -31 180 -50.5t190 -19.5z" />
    <glyph glyph-name="divide" unicode="&#xf7;" horiz-adv-x="1171" 
d="M1030 8q0 -9 -4.5 -14t-15.5 -6q-9 0 -13 4l-4 16v357q0 99 -23.5 138.5t-82.5 39.5q-46 0 -113 -39t-166 -123v-750q0 -9 -4.5 -14t-15.5 -6q-9 0 -13 5t-4 15v495q-172 -140 -293 -140q-66 0 -97 40q-36 47 -36 160v372q0 9 5 14t15 6q9 0 13 -4l4 -16v-373
q0 -91 24 -126.5t74 -35.5q109 0 291 143v1421q0 25 18 25q19 0 19 -25v-1161q85 73 157 113.5t123 40.5q61 0 97.5 -35.5t42.5 -104.5l2 -40v-392z" />
    <glyph glyph-name="oslash" unicode="&#xf8;" horiz-adv-x="1920" 
d="M1764 100q0 -8 -5 -12l-15 -4h-1455v-303q0 -11 -5 -16t-13 -5q-9 0 -15 6t-6 15v303h-227q-10 0 -14 4.5t-6 15.5q0 9 4 12l16 4h227v746q0 171 39 290t123 210q115 126 267 191t325 65q174 0 328 -67t266 -189q84 -91 122 -210q12 -37 20.5 -91.5t8.5 -107.5
q0 -51 -4 -87q-7 -60 -25.5 -117t-48.5 -110t-73 -99q-112 -122 -266 -189t-328 -67q-173 0 -325 65t-267 191q-45 49 -74 97q-32 52 -49 112v-633h1455q6 0 13 -6t7 -14zM1712 958q0 40 -6 90t-23 102q-37 114 -120 201q-107 115 -251.5 175.5t-307.5 60.5
q-165 0 -307.5 -60.5t-249.5 -175.5q-84 -90 -121 -203q-14 -44 -24.5 -108.5t-10.5 -109.5q0 -55 7 -93.5t22 -75.5q24 -59 54.5 -108t72.5 -94q107 -115 249.5 -175.5t307.5 -60.5q163 0 307.5 60.5t251.5 175.5q83 87 120 201q17 50 23 103.5t6 94.5z" />
    <glyph glyph-name="ugrave" unicode="&#xf9;" horiz-adv-x="729" 
d="M659 330q0 -143 -92.5 -241.5t-228.5 -98.5q-49 0 -85 11q-20 6 -36.5 14.5t-36.5 23.5v-235h443q21 0 21 -18q0 -10 -5.5 -14.5t-15.5 -4.5h-443v-136q0 -8 -5.5 -14t-14.5 -6t-13 4.5t-4 15.5v136h-66q-20 0 -20 20q0 17 20 17h66v651l-35 -24q-20 -15 -28 -15
q-6 0 -10 3.5t-4 12.5q0 12 14 25q10 8 30.5 21t32.5 20v69q0 10 4.5 14.5t14.5 6.5q8 0 14 -6q2 -2 4 -15v-47q68 36 122 52q29 8 54.5 12t55.5 4q111 0 179 -71t68 -187zM621 326q0 105 -57 165t-156 60q-55 0 -109.5 -17t-118.5 -55v-397q35 -28 73.5 -42.5t80.5 -14.5
q119 0 203 87t84 214z" />
    <glyph glyph-name="uacute" unicode="&#xfa;" horiz-adv-x="2066" 
d="M1968 692q0 -163 -54 -315t-157 -277q-130 -158 -323.5 -250t-399.5 -92q-182 0 -356 72q-87 37 -161.5 86.5t-141.5 116.5q-127 127 -201 302t-74 357q0 183 72 358t202 305t302 200.5t358 70.5q190 0 360.5 -69.5t301.5 -201t201.5 -303.5t70.5 -360zM1929 692
q0 184 -66.5 349t-193 290.5t-290.5 192.5t-345 67q-156 0 -300.5 -51.5t-266.5 -150.5q-155 -130 -242.5 -314.5t-87.5 -382.5q0 -173 69 -339t194.5 -291.5t292.5 -196.5q82 -34 167.5 -52t173.5 -18q174 0 340 69t293 194t194.5 290t67.5 344z" />
    <glyph glyph-name="ucircumflex" unicode="&#xfb;" horiz-adv-x="743" 
d="M674 287q0 -125 -89 -213q-44 -44 -96 -66t-116 -22q-123 0 -212 89t-89 212q0 122 87 211.5t214 89.5q126 0 213.5 -87.5t87.5 -213.5zM635 287q0 111 -76 187.5t-186 76.5q-109 0 -186.5 -78.5t-77.5 -185.5q0 -106 78 -185t186 -79t185 77t77 187z" />
    <glyph glyph-name="udieresis" unicode="&#xfc;" horiz-adv-x="1601" 
d="M1481 233q0 -207 -174 -344q-81 -62 -176.5 -96t-208.5 -34v-35q1 -7 -5 -12.5t-15 -5.5q-16 0 -18 19v33q-69 0 -134 4.5t-114 15.5q-104 23 -196 70q-29 15 -58.5 33t-59.5 41q-57 42 -64 53l-4 7l-3 4q-3 4 -5 12q0 6 5 11t13 5q7 0 11 -2l10 -6l6 -6q98 -98 248 -155
q73 -27 164 -41.5t181 -14.5v840q-33 4 -103 11t-83 9q-296 42 -436.5 154t-140.5 307q0 231 196 372q97 69 248.5 108t318.5 39v79q0 13 2.5 18.5t16.5 5.5q12 0 15.5 -6t3.5 -18v-79q23 0 48.5 -1t45 -4.5t15.5 -21.5q-3 -18 -24 -15q-9 2 -41.5 2.5t-43.5 1.5v-929
q122 -16 210 -40t140 -51q99 -51 154 -140t55 -198zM884 664v927q-10 0 -30 -1t-31 -1q-147 0 -267 -34.5t-214 -102.5q-184 -133 -184 -340q0 -174 130.5 -279.5t393.5 -144.5zM1444 231q0 103 -52.5 185.5t-150.5 128.5q-44 21 -123 42q-91 24 -196 39v-836
q101 0 190.5 33.5t166.5 91.5q165 125 165 316z" />
    <glyph glyph-name="yacute" unicode="&#xfd;" horiz-adv-x="755" 
d="M674 290q0 -120 -73 -206q-81 -96 -210 -96v-360q1 -7 -5 -12.5t-15 -5.5q-16 0 -18 19v358q-106 0 -188 81q-74 72 -87 161q1 6 2.5 12.5t9.5 9.5q9 3 14 -1t9 -12q11 -76 77 -142q73 -72 163 -72v532q-23 2 -57.5 15.5t-58.5 28.5q-55 35 -101 98q-22 31 -43.5 81
t-31.5 94t-14 91.5t-4 97.5v39t4 53q8 73 30 140.5t54 124.5q46 82 105 136q64 59 117 59q7 0 15 -1t14 -7t7.5 -11.5t1.5 -18.5v-988q100 0 186 -79q97 -89 97 -219zM353 592v984q-38 0 -92 -49.5t-95 -123.5q-31 -56 -52 -117.5t-30 -133.5q-1 -9 -2 -29t-1 -37v-23
q0 -91 16 -174q11 -50 28 -90t42 -78q16 -26 40 -48q20 -18 49 -39q43 -28 97 -42zM635 288q0 99 -66 177q-72 86 -178 86v-527q104 0 176 84q68 79 68 180z" />
    <glyph glyph-name="thorn" unicode="&#xfe;" 
d="M299 1602l-1 -4l-5 -11l-141 -224q-2 -5 -9 -8q-3 -3 -8 -3q-6 0 -10 4.5t-6 11.5l1 7l3 6l141 227l8 7l11 3q6 0 10.5 -4t5.5 -12z" />
    <glyph glyph-name="ydieresis" unicode="&#xff;" 
d="M299 1602l-1 -4l-5 -11l-141 -224q-2 -5 -9 -8q-3 -3 -8 -3q-6 0 -10 4.5t-6 11.5l1 7l3 6l141 227l8 7l11 3q6 0 10.5 -4t5.5 -12z" />
    <glyph glyph-name="Zdotaccent" unicode="&#x17b;" horiz-adv-x="1708" 
d="M810 1834q0 20 14 34t34 14t34 -14t14 -34t-14 -34t-34 -14t-34 14t-14 34zM1539 1571h-1366q-10 0 -14 4.5t-6 15.5q0 9 4 13l16 4h1393q13 0 18 -5q6 -3 6 -16l-2 -11l-10 -15l-1407 -1758h1399q9 0 14.5 -4.5t5.5 -11.5q0 -12 -3.5 -15t-16.5 -5h-1430q-12 0 -17 3.5
t-5 14.5q0 6 5 14l6 10l5 6z" />
  </font>
</defs>
</svg>
